<svg width="19" height="23" viewBox="0 0 19 23" fill="none" xmlns="http://www.w3.org/2000/svg">
<path d="M15.6507 11.7652C15.6246 8.97024 18.0332 7.61048 18.1433 7.54717C16.7792 5.63675 14.6649 5.37572 13.9219 5.35491C12.1461 5.1754 10.4236 6.3756 9.51903 6.3756C8.59639 6.3756 7.20339 5.37226 5.70206 5.40174C3.77011 5.43036 1.96274 6.50481 0.971481 8.17329C-1.07423 11.5753 0.451478 16.5746 2.41142 19.3245C3.39184 20.6713 4.53747 22.175 6.037 22.1221C7.50402 22.064 8.05201 21.2237 9.82236 21.2237C11.5765 21.2237 12.0911 22.1221 13.6204 22.0883C15.1948 22.064 16.1861 20.7354 17.1322 19.3765C18.2652 17.8329 18.7202 16.3128 18.7382 16.2347C18.7012 16.2226 15.6805 15.1152 15.6507 11.7652Z" fill="currentColor"/>
<path d="M12.7618 3.54595C13.5509 2.59811 14.0907 1.30859 13.9409 0C12.7988 0.0485628 11.3706 0.758793 10.5482 1.68582C9.82056 2.50272 9.17056 3.84166 9.33847 5.10082C10.6213 5.19275 11.9385 4.47905 12.7618 3.54595Z" fill="currentColor"/>
</svg>
