<svg width="96" height="80" viewBox="0 0 96 80" fill="none" xmlns="http://www.w3.org/2000/svg">
<g clip-path="url(#clip0_9229_1811)">
<path d="M20.9688 21.5254H75.6563C78.6642 21.5254 81.1251 23.9863 81.1251 26.9942V33.5568C81.1251 36.5646 78.6642 39.0256 75.6563 39.0256H20.9688C17.9609 39.0253 15.5 36.5644 15.5 33.5566V26.9941C15.5 23.9863 17.9609 21.5254 20.9688 21.5254Z" fill="#B2581A"/>
<path d="M32.9453 27.3771L67.1797 18.299C68.3282 17.9709 69.5313 18.6818 69.8594 19.8303L75.5469 40.8303C75.875 41.9788 75.164 43.1818 74.0156 43.5099L29.4453 55.377C28.2969 55.7052 27.0938 54.9942 26.7657 53.8457L22.6094 38.424L32.9453 27.3771Z" fill="#3DB39E"/>
<path d="M69.586 40.1729L62.2032 42.1416C61.6017 42.3057 61.0001 41.9774 60.8908 41.3759C60.7267 40.7744 61.0549 40.1727 61.6564 40.0635L68.0002 38.3682L64.6096 25.6807L58.2659 27.376C57.6643 27.5401 57.0627 27.2119 56.9534 26.6104C56.7893 26.0088 57.1175 25.4072 57.7191 25.2979L65.1018 23.3292C65.7034 23.1651 66.305 23.4933 66.4143 24.0949L70.3518 38.8604C70.5156 39.4619 70.1875 40.0635 69.586 40.1729ZM38.961 48.4307L31.5782 50.3994C30.9767 50.5635 30.375 50.2353 30.2658 49.6338L26.3282 34.8682C26.1641 34.2667 26.4924 33.665 27.0939 33.5557L34.4767 31.5871C35.0782 31.4229 35.6798 31.7512 35.7891 32.3527C35.9533 32.9542 35.625 33.5559 35.0235 33.6652L28.6797 35.3604L32.0703 48.0479L38.414 46.3526C39.0156 46.1885 39.6172 46.5168 39.7265 47.1183C39.8906 47.6651 39.5625 48.2666 38.961 48.4307Z" fill="#78CABB"/>
<path d="M15.9377 35.0323C25.672 29.4541 51.9221 14.0869 51.9221 14.0869C52.9611 13.4854 54.3283 13.8135 54.93 14.8525L65.8674 33.665C66.4689 34.7041 66.0861 36.0165 65.0471 36.6182L25.0157 59.5869C23.9767 60.1884 22.6095 59.8603 22.0078 58.8212C22.0078 58.8212 18.9454 52.5869 15.8828 47.3368C15.883 35.0323 15.9377 39.0791 15.9377 35.0323Z" fill="#5ABEAC"/>
<path d="M60.2892 33.0649L52.633 19.8305C52.3049 19.2836 51.6486 19.1195 51.1564 19.4476L44.5393 23.2757C43.9924 23.6038 43.8283 24.2601 44.1564 24.7523C44.4845 25.2991 45.1408 25.4632 45.633 25.1351L51.3205 21.8538L57.8831 33.2289L52.1956 36.5101C51.6488 36.8382 51.4846 37.4945 51.8128 37.9867C52.1409 38.5335 52.7971 38.6977 53.2893 38.3695L59.9065 34.5414C60.3986 34.268 60.6173 33.6118 60.2892 33.0649ZM31.3048 48.5415L25.6173 51.8228L19.0548 40.4476L24.7423 37.1664C25.2891 36.8383 25.4532 36.182 25.1251 35.6898C24.797 35.143 24.1408 34.9788 23.6485 35.307L17.0314 39.135C16.4846 39.4632 16.3204 40.1194 16.6486 40.6116L24.3047 53.846C24.6329 54.3929 25.2891 54.557 25.7813 54.2289L32.3985 50.4008C32.9453 50.0727 33.1094 49.4164 32.7813 48.9242C32.5079 48.4321 31.8517 48.2133 31.3048 48.5415ZM34.0939 29.2368C29.883 31.643 28.4611 37.0024 30.8673 41.2133C33.3282 45.4242 38.6329 46.8461 42.8438 44.4399C47.0548 42.0336 48.4766 36.6743 46.0704 32.4633C43.6095 28.307 38.3048 26.8306 34.0939 29.2368ZM60.2892 33.0649L52.633 19.8305C52.3049 19.2836 51.6486 19.1195 51.1564 19.4476L44.5393 23.2757C43.9924 23.6038 43.8283 24.2601 44.1564 24.7523C44.4845 25.2991 45.1408 25.4632 45.633 25.1351L51.3205 21.8538L57.8831 33.2289L52.1956 36.5101C51.6488 36.8382 51.4846 37.4945 51.8128 37.9867C52.1409 38.5335 52.7971 38.6977 53.2893 38.3695L59.9065 34.5414C60.3986 34.268 60.6173 33.6118 60.2892 33.0649ZM31.3048 48.5415L25.6173 51.8228L19.0548 40.4476L24.7423 37.1664C25.2891 36.8383 25.4532 36.182 25.1251 35.6898C24.797 35.143 24.1408 34.9788 23.6485 35.307L17.0314 39.135C16.4846 39.4632 16.3204 40.1194 16.6486 40.6116L24.3047 53.846C24.6329 54.3929 25.2891 54.557 25.7813 54.2289L32.3985 50.4008C32.9453 50.0727 33.1094 49.4164 32.7813 48.9242C32.5079 48.4321 31.8517 48.2133 31.3048 48.5415ZM34.0939 29.2368C29.883 31.643 28.4611 37.0024 30.8673 41.2133C33.3282 45.4242 38.6329 46.8461 42.8438 44.4399C47.0548 42.0336 48.4766 36.6743 46.0704 32.4633C43.6095 28.307 38.3048 26.8306 34.0939 29.2368Z" fill="#8CD2C5"/>
<path d="M77.8438 76.213H20.9688C17.9609 76.213 15.5 73.752 15.5 70.7442V31.3692H77.8438C80.8517 31.3692 83.3126 33.8301 83.3126 36.838V70.7443C83.3125 73.752 80.8516 76.213 77.8438 76.213ZM19.875 31.3692H15.5V26.9941C15.5 29.4004 17.4687 31.3692 19.875 31.3692Z" fill="#C55507"/>
<path d="M83.3124 62.5409H74.5624C70.3515 62.5409 66.9062 59.0956 66.9062 54.8847C66.9062 50.6738 70.3515 47.2285 74.5624 47.2285H83.3124C84.5156 47.2285 85.4999 48.2129 85.4999 49.416V60.3535C85.4999 61.5565 84.5156 62.5409 83.3124 62.5409Z" fill="#B2581A"/>
<path d="M74.5625 50.5098C76.9688 50.5098 78.9376 52.4785 78.9376 54.8848C78.9376 57.2912 76.9689 59.2599 74.5625 59.2599C72.1563 59.2599 70.1875 57.2912 70.1875 54.8848C70.1875 52.4785 72.1563 50.5098 74.5625 50.5098Z" fill="#EFC75E"/>
<path d="M75.6563 58.1661C73.2501 58.1661 71.2813 56.1974 71.2813 53.791C71.2813 52.8614 71.5547 51.9863 72.0469 51.2754C70.8984 52.041 70.1875 53.3535 70.1875 54.8848C70.1875 57.291 72.1562 59.2598 74.5625 59.2598C76.0391 59.2598 77.3516 58.4942 78.1719 57.4004C77.461 57.8927 76.5859 58.1661 75.6563 58.1661Z" fill="#FFD567"/>
<path d="M77.8438 74.0254H20.9688C17.9609 74.0254 15.5 71.5645 15.5 68.5566V70.7442C15.5 73.752 17.9609 76.213 20.9688 76.213H77.8438C80.8517 76.213 83.3126 73.752 83.3126 70.7442V68.5566C83.3125 71.5645 80.8516 74.0254 77.8438 74.0254Z" fill="#D3966B"/>
<path d="M77.8438 31.3692H19.875C17.4687 31.3692 15.5 29.4004 15.5 26.9941V29.1817C15.5 31.5879 17.4687 33.5567 19.875 33.5567H77.8438C80.8517 33.5567 83.3126 36.0176 83.3126 39.0255V36.838C83.3125 33.8301 80.8516 31.3692 77.8438 31.3692Z" fill="#CA8B5F"/>
</g>
<path d="M80.5 80C88.7843 80 95.5 73.2843 95.5 65C95.5 56.7157 88.7843 50 80.5 50C72.2157 50 65.5 56.7157 65.5 65C65.5 73.2843 72.2157 80 80.5 80Z" fill="#FF4040"/>
<path d="M86.1854 63H85.3134H83.5H78.5H75.8146C74.5363 63 73.5 63.829 73.5 64.8516V65.1484C73.5 66.171 74.5363 67 75.8146 67H78.5H83.5H86.1854C87.4637 67 88.5 66.171 88.5 65.1484V64.8516C88.5 63.829 87.4637 63 86.1854 63Z" fill="white"/>
<defs>
<clipPath id="clip0_9229_1811">
<rect width="70" height="70" fill="white" transform="translate(15.5 10)"/>
</clipPath>
</defs>
</svg>
