<svg width="512" height="363" viewBox="0 0 512 363" fill="none" xmlns="http://www.w3.org/2000/svg">
<path d="M501.333 256H138.667C132.779 256 128 251.221 128 245.333V10.6667C128 4.77867 132.779 0 138.667 0H501.333C507.221 0 512 4.77867 512 10.6667V245.333C512 251.221 507.221 256 501.333 256Z" fill="#00863F"/>
<path d="M320 192C355.346 192 384 163.346 384 128C384 92.6538 355.346 64 320 64C284.654 64 256 92.6538 256 128C256 163.346 284.654 192 320 192Z" fill="#83BE4E"/>
<path d="M320 170.666C343.564 170.666 362.667 151.564 362.667 128C362.667 104.436 343.564 85.333 320 85.333C296.436 85.333 277.333 104.436 277.333 128C277.333 151.564 296.436 170.666 320 170.666Z" fill="#00863F"/>
<path d="M426.667 149.333C438.449 149.333 448 139.781 448 127.999C448 116.217 438.449 106.666 426.667 106.666C414.885 106.666 405.333 116.217 405.333 127.999C405.333 139.781 414.885 149.333 426.667 149.333Z" fill="#83BE4E"/>
<path d="M149.333 62.9117V21.333H190.912C186.667 42.197 170.197 58.6663 149.333 62.9117Z" fill="#83BE4E"/>
<path d="M490.667 234.667H449.088C453.333 213.803 469.803 197.333 490.667 193.088V234.667Z" fill="#83BE4E"/>
<path d="M490.667 62.9117C469.803 58.6663 453.333 42.197 449.088 21.333H490.667V62.9117Z" fill="#83BE4E"/>
<path d="M104.555 206.954C102.805 204.629 100.203 203.093 97.3227 202.752L11.9893 192.085C8.96 191.765 5.888 192.64 3.60533 194.666C1.32267 196.693 0 199.594 0 202.666V352C0 355.136 1.36533 358.122 3.776 360.128C5.71733 361.77 8.14933 362.666 10.6667 362.666C11.2427 362.666 11.84 362.624 12.416 362.517L76.416 351.85C80.9173 351.104 84.4373 347.584 85.184 343.082L106.517 215.082C107.008 212.224 106.283 209.28 104.555 206.954Z" fill="#5C6671"/>
<path d="M341.333 256H288H224.981C224.469 254.827 223.872 253.845 223.424 252.544C219.264 240.427 241.963 209.195 252.864 194.176C258.453 186.496 262.869 180.395 265.387 175.723C273.749 160.192 275.2 148.288 269.867 139.349C266.773 134.165 260.011 128 245.333 128C227.861 128 208.533 148.395 186.176 171.989L184.277 173.995C177.301 181.355 158.763 200.896 147.541 202.837C133.461 205.248 118.357 210.517 106.56 216.085L85.4827 341.376C104.469 342.741 138.155 347.691 160.896 352.149C188.565 357.547 214.699 362.667 234.667 362.667C282.752 362.667 354.112 299.499 358.037 296.811C380.352 278.464 384 256 384 256H341.333Z" fill="#FDC99D"/>
<path d="M269.867 139.35C275.2 148.288 273.749 160.214 265.387 175.723C262.869 180.395 258.453 186.475 252.864 194.176C241.963 209.195 219.264 240.427 223.424 252.544C223.467 252.694 223.552 252.8 223.595 252.95C224.021 254.038 224.512 254.976 224.96 256L298.688 339.606C329.557 321.259 355.691 298.39 358.016 296.79C380.352 278.464 384 256 384 256L269.867 139.35Z" fill="url(#paint0_radial_9771_229)"/>
<path d="M501.333 0H138.667C132.779 0 128 4.77867 128 10.6667V207.723C120.341 210.155 112.939 213.035 106.539 216.064L85.4613 341.355C104.448 342.72 138.133 347.669 160.875 352.128C188.565 357.547 214.699 362.667 234.667 362.667C254.208 362.667 277.568 352.192 298.709 339.605C325.995 323.371 349.525 303.68 356.224 298.219C357.099 297.515 357.76 296.981 358.016 296.789C380.352 278.464 384 256 384 256H501.333C507.221 256 512 251.221 512 245.333V10.6667C512 4.77867 507.221 0 501.333 0Z" fill="url(#paint1_radial_9771_229)" fill-opacity="0.08"/>
<path d="M104.555 206.954C102.805 204.629 100.203 203.093 97.3227 202.752L11.9893 192.085C8.96 191.765 5.888 192.64 3.60533 194.666C1.32267 196.693 0 199.594 0 202.666V352C0 355.136 1.36533 358.122 3.776 360.128C5.71733 361.77 8.14933 362.666 10.6667 362.666C11.2427 362.666 11.84 362.624 12.416 362.517L76.416 351.85C80.9173 351.104 84.4373 347.584 85.184 343.082L85.4613 341.354L106.517 215.082C107.008 212.224 106.283 209.28 104.555 206.954Z" fill="url(#paint2_radial_9771_229)" fill-opacity="0.08"/>
<defs>
<radialGradient id="paint0_radial_9771_229" cx="0" cy="0" r="1" gradientUnits="userSpaceOnUse" gradientTransform="translate(264.875 138.646) scale(165.205 165.205)">
<stop stop-color="#263238" stop-opacity="0.15"/>
<stop offset="1" stop-color="#263238" stop-opacity="0.02"/>
</radialGradient>
<radialGradient id="paint1_radial_9771_229" cx="0" cy="0" r="1" gradientUnits="userSpaceOnUse" gradientTransform="translate(147.904 46.592) scale(387.84 387.84)">
<stop stop-color="white"/>
<stop offset="1" stop-color="white" stop-opacity="0"/>
</radialGradient>
<radialGradient id="paint2_radial_9771_229" cx="0" cy="0" r="1" gradientUnits="userSpaceOnUse" gradientTransform="translate(15.616 213.952) scale(140.267 140.267)">
<stop stop-color="white"/>
<stop offset="1" stop-color="white" stop-opacity="0"/>
</radialGradient>
</defs>
</svg>
