<svg width="28" height="27" viewBox="0 0 28 27" fill="none" xmlns="http://www.w3.org/2000/svg">
<path d="M27.6573 9.39375V20.8942C27.741 21.6121 27.6612 22.3397 27.4239 23.0223C27.1865 23.705 26.7977 24.3251 26.2866 24.8361C25.7756 25.3472 25.1555 25.736 24.4728 25.9733C23.7902 26.2107 23.0626 26.2905 22.3448 26.2067H5.34477C4.62688 26.2905 3.89936 26.2107 3.2167 25.9733C2.53404 25.736 1.91395 25.3472 1.40289 24.8361C0.891825 24.3251 0.503046 23.705 0.26568 23.0223C0.0283144 22.3397 -0.0514833 21.6121 0.0322657 20.8942V6.72758C-0.0514833 6.0097 0.0283144 5.28217 0.26568 4.59951C0.503046 3.91685 0.891825 3.29676 1.40289 2.7857C1.91395 2.27464 2.53404 1.88586 3.2167 1.64849C3.89936 1.41113 4.62688 1.33133 5.34477 1.41508H17.8114C17.8741 1.41672 17.9357 1.43221 17.9917 1.46044C18.0476 1.48868 18.0967 1.52895 18.1353 1.57837C18.1739 1.6278 18.2011 1.68515 18.2149 1.74632C18.2287 1.80748 18.2288 1.87095 18.2152 1.93216C17.8809 3.58744 18.2171 5.30771 19.1499 6.71539C20.0827 8.12307 21.5359 9.10315 23.1905 9.4405C24.5001 9.70231 25.8589 9.54621 27.075 8.99425C27.1399 8.96842 27.2101 8.95895 27.2794 8.9667C27.3488 8.97444 27.4152 8.99914 27.4727 9.03863C27.5303 9.07812 27.5772 9.13118 27.6094 9.19311C27.6416 9.25504 27.658 9.32395 27.6573 9.39375Z" fill="#A6A6A6" fill-opacity="0.35"/>
<path d="M25.4066 16.8749L19.0996 10.5679C18.8325 10.3018 18.4708 10.1523 18.0938 10.1523C17.7167 10.1523 17.355 10.3018 17.0879 10.5679L10.0896 17.5662C9.95718 17.696 9.77916 17.7687 9.59375 17.7687C9.40834 17.7687 9.23032 17.696 9.09792 17.5662L7.76625 16.2345C7.49914 15.9684 7.13746 15.819 6.76042 15.819C6.38337 15.819 6.0217 15.9684 5.75458 16.2345L2.28092 19.7082C2.20119 19.7878 2.15635 19.8958 2.15625 20.0085V20.8954C2.15625 23.1337 3.10542 24.0829 5.34375 24.0829H22.3438C24.5821 24.0829 25.5312 23.1337 25.5312 20.8954V17.1752C25.5312 17.0625 25.4863 16.9545 25.4066 16.8749Z" fill="#999999" fill-opacity="0.7"/>
<path d="M8.17956 11.3307C7.94701 11.3316 7.71658 11.2866 7.50141 11.1984C7.28624 11.1102 7.09056 10.9804 6.92553 10.8166C6.59224 10.4857 6.40405 10.0359 6.40236 9.56627C6.40066 9.09662 6.58561 8.64553 6.91651 8.31224C7.24741 7.97894 7.69716 7.79075 8.16681 7.78906H8.17956C8.64922 7.78906 9.09964 7.97563 9.43173 8.30773C9.76383 8.63982 9.9504 9.09024 9.9504 9.5599C9.9504 10.0296 9.76383 10.48 9.43173 10.8121C9.09964 11.1442 8.64922 11.3307 8.17956 11.3307Z" fill="#999999" fill-opacity="0.7"/>
<path d="M27.3457 2.43515L25.2207 0.310147C25.0213 0.111522 24.7513 0 24.4698 0C24.1884 0 23.9184 0.111522 23.719 0.310147L21.594 2.43515C21.4063 2.63656 21.3041 2.90296 21.309 3.17822C21.3139 3.45348 21.4254 3.71611 21.62 3.91078C21.8147 4.10545 22.0773 4.21696 22.3526 4.22181C22.6279 4.22667 22.8943 4.12449 23.0957 3.93681L23.4073 3.62656V6.72765C23.4073 7.00944 23.5193 7.27969 23.7185 7.47895C23.9178 7.67821 24.188 7.79015 24.4698 7.79015C24.7516 7.79015 25.0219 7.67821 25.2211 7.47895C25.4204 7.27969 25.5323 7.00944 25.5323 6.72765V3.62656L25.844 3.93681C26.0454 4.12449 26.3118 4.22667 26.5871 4.22181C26.8623 4.21696 27.125 4.10545 27.3196 3.91078C27.5143 3.71611 27.6258 3.45348 27.6307 3.17822C27.6355 2.90296 27.5333 2.63656 27.3457 2.43515Z" fill="#999999" fill-opacity="0.7"/>
</svg>
