<svg width="70" height="70" viewBox="0 0 70 70" fill="none" xmlns="http://www.w3.org/2000/svg">
<g clip-path="url(#clip0_4785_51989)">
<path d="M35 3.0598e-06C15.67 1.36992e-06 4.74968e-06 15.67 3.0598e-06 35C1.36992e-06 54.33 15.67 70 35 70C54.33 70 70 54.33 70 35C70 15.67 54.33 4.74968e-06 35 3.0598e-06Z" fill="#039D55"/>
<path d="M35 28C36.2675 28.0001 37.4858 28.4906 38.3997 29.3688C39.3136 30.247 39.8522 31.4449 39.9027 32.7113L40.5494 49.041C40.5754 49.7011 40.4678 50.3596 40.2331 50.9771C39.9984 51.5946 39.6415 52.1583 39.1836 52.6345C38.7258 53.1107 38.1766 53.4896 37.5688 53.7484C36.961 54.0072 36.3073 54.1406 35.6467 54.1406L34.3533 54.1406C33.6927 54.1406 33.039 54.0072 32.4312 53.7484C31.8234 53.4896 31.2742 53.1107 30.8164 52.6345C30.3586 52.1583 30.0016 51.5946 29.7669 50.9771C29.5322 50.3596 29.4246 49.7011 29.4506 49.041L30.0973 32.7113C30.1478 31.4448 30.6864 30.247 31.6003 29.3688C32.5142 28.4906 33.7325 28.0001 35 28Z" fill="white"/>
<path d="M30.1012 20.7576C30.1012 23.4631 32.2943 25.6563 34.9998 25.6563C37.7052 25.6563 39.8984 23.4631 39.8984 20.7576C39.8984 18.0522 37.7052 15.859 34.9998 15.859C32.2944 15.859 30.1012 18.0522 30.1012 20.7576Z" fill="white"/>
</g>
<defs>
<clipPath id="clip0_4785_51989">
<rect width="70" height="70" fill="white" transform="translate(70 70) rotate(-180)"/>
</clipPath>
</defs>
</svg>
