<svg width="16" height="17" viewBox="0 0 16 17" fill="none" xmlns="http://www.w3.org/2000/svg">
<path d="M15.3867 10.7203L9.99998 2.21366C9.54665 1.56033 8.79332 1.16699 7.99998 1.16699C7.20665 1.16699 6.45332 1.55366 5.97998 2.23366L0.619983 10.707C-0.0600171 11.6803 -0.186684 12.847 0.28665 13.747C0.753316 14.647 1.73332 15.1603 2.95998 15.1603H13.04C14.2733 15.1603 15.2467 14.647 15.7133 13.747C16.18 12.847 16.0533 11.687 15.3867 10.7203ZM7.33332 5.16699C7.33332 4.80033 7.63332 4.50033 7.99998 4.50033C8.36665 4.50033 8.66665 4.80033 8.66665 5.16699V9.16699C8.66665 9.53366 8.36665 9.83366 7.99998 9.83366C7.63332 9.83366 7.33332 9.53366 7.33332 9.16699V5.16699ZM7.99998 13.167C7.44665 13.167 6.99998 12.7203 6.99998 12.167C6.99998 11.6137 7.44665 11.167 7.99998 11.167C8.55332 11.167 8.99998 11.6137 8.99998 12.167C8.99998 12.7203 8.55332 13.167 7.99998 13.167Z" fill="#FF6D6D"/>
</svg>
