<svg width="62" height="62" viewBox="0 0 62 62" fill="none" xmlns="http://www.w3.org/2000/svg">
<path d="M31 62C48.1202 62 62 48.1202 62 31C62 13.8798 48.1202 0 31 0C13.8798 0 0 13.8798 0 31C0 48.1202 13.8798 62 31 62ZM27.5658 15.0084C27.5658 14.0975 27.9276 13.224 28.5716 12.58C29.2157 11.936 30.0892 11.5741 31 11.5741C31.9108 11.5741 32.7843 11.936 33.4284 12.58C34.0724 13.224 34.4342 14.0975 34.4342 15.0084V36.6914C34.4344 37.1425 34.3457 37.5892 34.1732 38.006C34.0006 38.4228 33.7477 38.8015 33.4288 39.1206C33.1099 39.4396 32.7312 39.6926 32.3145 39.8653C31.8978 40.038 31.4511 40.1268 31 40.1268C30.5489 40.1268 30.1022 40.038 29.6855 39.8653C29.2688 39.6926 28.8901 39.4396 28.5712 39.1206C28.2523 38.8015 27.9994 38.4228 27.8268 38.006C27.6543 37.5892 27.5656 37.1425 27.5658 36.6914V15.0084ZM27.5755 45.6766C27.6561 45.2995 27.8441 44.9538 28.1168 44.6812C28.3894 44.4086 28.7351 44.2206 29.1121 44.1399C30.3634 43.9478 31.6366 43.9478 32.8879 44.1399C33.2649 44.2206 33.6106 44.4086 33.8832 44.6812C34.1559 44.9538 34.3439 45.2995 34.4245 45.6766C34.6167 46.9274 34.6167 48.2002 34.4245 49.4511C34.3443 49.8283 34.1564 50.1742 33.8837 50.4469C33.611 50.7196 33.2651 50.9075 32.8879 50.9877C31.6367 51.1815 30.3633 51.1815 29.1121 50.9877C28.7349 50.9075 28.389 50.7196 28.1163 50.4469C27.8436 50.1742 27.6557 49.8283 27.5755 49.4511C27.3833 48.2002 27.3833 46.9274 27.5755 45.6766Z" fill="#F1695F"/>
</svg>
