<svg xmlns="http://www.w3.org/2000/svg" width="30" height="30" viewBox="0 0 30 30" fill="none">
  <path d="M1.19922 4.31961V25.5596C1.19922 27.5996 2.87922 29.2796 4.91922 29.2796H20.8792C22.9192 29.2796 24.5992 27.5996 24.5992 25.5596V20.3996L23.7592 21.2396C22.9192 22.0796 21.7192 22.6796 20.5192 23.0396L17.9992 23.5196C16.9192 23.7596 15.7192 23.3996 15.1192 22.5596C14.5192 21.8396 14.2792 20.9996 14.5192 20.0396L15.1192 17.3996C15.3592 16.1996 15.9592 15.1196 16.9192 14.1596L22.9192 8.15961C23.3992 7.67961 24.1192 7.19961 24.7192 6.95961V4.31961C24.7192 2.27961 23.0392 0.599609 20.9992 0.599609H4.91922C2.87922 0.599609 1.19922 2.27961 1.19922 4.31961ZM7.07922 4.79961H18.5992C19.3192 4.79961 19.7992 5.27961 19.7992 5.99961C19.7992 6.71961 19.3192 7.19961 18.5992 7.19961H7.07922C6.35922 7.19961 5.87922 6.71961 5.87922 5.99961C5.87922 5.39961 6.47922 4.79961 7.07922 4.79961ZM7.07922 9.71961H13.7992C14.5192 9.71961 14.9992 10.1996 14.9992 10.9196C14.9992 11.6396 14.5192 12.1196 13.7992 12.1196H7.07922C6.35922 12.1196 5.87922 11.6396 5.87922 10.9196C5.87922 10.1996 6.47922 9.71961 7.07922 9.71961Z" fill="currentColor" fill-opacity="0.5"/>
  <path d="M28.0789 9.95926C27.1189 8.99926 25.4389 8.99926 24.4789 9.95926L18.4789 15.9593C17.8789 16.5593 17.5189 17.1593 17.3989 17.9993L16.7989 20.5193C16.6789 20.8793 17.0389 21.2393 17.3989 21.1193L20.0389 20.5193C20.7589 20.3993 21.4789 19.9193 22.0789 19.4393L28.0789 13.4393C29.0389 12.4793 29.0389 10.9193 28.0789 9.95926Z" fill="currentColor" fill-opacity="0.5"/>
</svg>