<svg width="20" height="20" viewBox="0 0 20 20" fill="none" xmlns="http://www.w3.org/2000/svg">
<g clip-path="url(#clip0_9403_3089)">
<path d="M10 20C15.5228 20 20 15.5228 20 10C20 4.47715 15.5228 0 10 0C4.47715 0 0 4.47715 0 10C0 15.5228 4.47715 20 10 20Z" fill="#FD4760"/>
<path d="M13.8672 6.13281C11.7344 4 8.26409 4 6.13284 6.13281C4.00159 8.26562 4.00002 11.7359 6.13284 13.8672C7.15848 14.8928 8.54955 15.469 10 15.469C11.4505 15.469 12.8416 14.8928 13.8672 13.8672C14.8929 12.8415 15.4691 11.4505 15.4691 10C15.4691 8.54952 14.8929 7.15845 13.8672 6.13281ZM7.36565 7.36562C7.95728 6.77566 8.72982 6.40135 9.55949 6.30269C10.3892 6.20403 11.2279 6.38672 11.9414 6.82148L6.82151 11.9414C6.38661 11.228 6.20384 10.3891 6.30251 9.55944C6.40117 8.72974 6.77556 7.95718 7.36565 7.36562ZM12.6321 12.632C12.0408 13.2229 11.2681 13.5978 10.438 13.6965C9.60802 13.7953 8.7689 13.6122 8.05549 13.1766L13.1766 8.05547C13.6122 8.76887 13.7953 9.60799 13.6966 10.438C13.5978 11.268 13.2229 12.0408 12.6321 12.632Z" fill="white"/>
</g>
<defs>
<clipPath id="clip0_9403_3089">
<rect width="20" height="20" fill="white"/>
</clipPath>
</defs>
</svg>
