<svg width="50" height="50" viewBox="0 0 50 50" fill="none" xmlns="http://www.w3.org/2000/svg">
<path d="M23.7453 42.6832L23.1885 43.1778L19.2714 46.3103L15.3555 43.1778L11.4388 46.3103L7.52168 43.1778L3.60498 46.3103V5.09286C3.60498 2.28031 5.88529 6.3173e-08 8.69784 6.3173e-08H39.372C36.9219 -0.000409034 34.9353 1.98617 34.9357 4.43625V26.3999C34.9116 26.3991 34.8875 26.3991 34.8633 26.3991C30.92 26.4019 27.232 28.3509 25.0082 31.6081C22.7847 34.8649 22.3122 39.0095 23.7453 42.6832Z" fill="#14B19E"/>
<path d="M39.372 6.3173e-08C41.8221 6.3173e-08 43.8082 1.98617 43.8082 4.43625V16.1242H34.9357V4.43625C34.9353 1.98617 36.9219 -0.000409034 39.372 6.3173e-08Z" fill="#00A08D"/>
<path d="M34.9358 26.3999C41.4453 26.5145 46.6323 31.8786 46.528 38.3881C46.4236 44.8977 41.0673 50.0932 34.5578 49.9987C28.0478 49.9046 22.8445 44.5561 22.9287 38.0461C23.013 31.5366 28.3534 26.3246 34.8634 26.3991C34.8875 26.3991 34.9116 26.3991 34.9358 26.3999Z" fill="white"/>
<path d="M7.67061 20.68H7.95125C8.29817 20.68 8.57963 20.3985 8.57963 20.0516C8.57963 19.7043 8.29817 19.4232 7.95125 19.4232H7.67061C7.3237 19.4232 7.04224 19.7043 7.04224 20.0516C7.04224 20.3985 7.3237 20.68 7.67061 20.68Z" fill="white"/>
<path d="M12.862 19.4232H10.7454C10.3985 19.4232 10.117 19.7043 10.117 20.0516C10.117 20.3985 10.3985 20.68 10.7454 20.68H12.862C13.209 20.68 13.4904 20.3985 13.4904 20.0516C13.4904 19.7043 13.209 19.4232 12.862 19.4232Z" fill="white"/>
<path d="M30.8701 19.4232H15.7024C15.3551 19.4232 15.074 19.7043 15.074 20.0516C15.074 20.3985 15.3551 20.68 15.7024 20.68H30.8701C31.217 20.68 31.4985 20.3985 31.4985 20.0516C31.4985 19.7043 31.217 19.4232 30.8701 19.4232Z" fill="white"/>
<path d="M7.67061 14.7124H7.95125C8.29817 14.7124 8.57963 14.431 8.57963 14.0841C8.57963 13.7371 8.29817 13.4557 7.95125 13.4557H7.67061C7.3237 13.4557 7.04224 13.7371 7.04224 14.0841C7.04224 14.431 7.3237 14.7124 7.67061 14.7124Z" fill="white"/>
<path d="M12.862 13.4557H10.7454C10.3985 13.4557 10.117 13.7371 10.117 14.0841C10.117 14.431 10.3985 14.7124 10.7454 14.7124H12.862C13.209 14.7124 13.4904 14.431 13.4904 14.0841C13.4904 13.7371 13.209 13.4557 12.862 13.4557Z" fill="white"/>
<path d="M30.8701 13.4557H15.7024C15.3551 13.4557 15.074 13.7371 15.074 14.0841C15.074 14.431 15.3551 14.7124 15.7024 14.7124H30.8701C31.217 14.7124 31.4985 14.431 31.4985 14.0841C31.4985 13.7371 31.217 13.4557 30.8701 13.4557Z" fill="white"/>
<path d="M7.67061 8.74491H7.95125C8.29817 8.74491 8.57963 8.46345 8.57963 8.11653C8.57963 7.76962 8.29817 7.48816 7.95125 7.48816H7.67061C7.3237 7.48816 7.04224 7.76962 7.04224 8.11653C7.04224 8.46345 7.3237 8.74491 7.67061 8.74491Z" fill="white"/>
<path d="M12.862 7.48816H10.7454C10.3985 7.48816 10.117 7.76962 10.117 8.11653C10.117 8.46345 10.3985 8.74491 10.7454 8.74491H12.862C13.209 8.74491 13.4904 8.46345 13.4904 8.11653C13.4904 7.76962 13.209 7.48816 12.862 7.48816Z" fill="white"/>
<path d="M15.7024 8.74491H30.8701C31.217 8.74491 31.4985 8.46345 31.4985 8.11653C31.4985 7.76962 31.217 7.48816 30.8701 7.48816H15.7024C15.3551 7.48816 15.074 7.76962 15.074 8.11653C15.074 8.46345 15.3551 8.74491 15.7024 8.74491Z" fill="white"/>
<path d="M7.67061 26.6482H7.95125C8.29817 26.6482 8.57963 26.3672 8.57963 26.0199C8.57963 25.6729 8.29817 25.3915 7.95125 25.3915H7.67061C7.3237 25.3915 7.04224 25.6729 7.04224 26.0199C7.04224 26.3672 7.3237 26.6482 7.67061 26.6482Z" fill="white"/>
<path d="M12.862 25.3915H10.7454C10.3985 25.3915 10.117 25.6729 10.117 26.0199C10.117 26.3672 10.3985 26.6482 10.7454 26.6482H12.862C13.209 26.6482 13.4904 26.3672 13.4904 26.0199C13.4904 25.6729 13.209 25.3915 12.862 25.3915Z" fill="white"/>
<path d="M24.9026 25.3915H15.7024C15.3551 25.3915 15.074 25.6729 15.074 26.0199C15.074 26.3672 15.3551 26.6482 15.7024 26.6482H24.9026C25.2499 26.6482 25.531 26.3672 25.531 26.0199C25.531 25.6729 25.2499 25.3915 24.9026 25.3915Z" fill="white"/>
<path d="M9.44978 33.1521C10.0855 33.1525 10.6002 33.6676 10.601 34.3029C10.601 34.6503 10.8824 34.9313 11.2294 34.9313C11.5763 34.9313 11.8577 34.6503 11.8577 34.3029C11.8561 33.216 11.1275 32.264 10.0782 31.9788V31.5456C10.0782 31.1983 9.7971 30.9172 9.44978 30.9172C9.10286 30.9172 8.8214 31.1983 8.8214 31.5456V31.9788C7.65629 32.2943 6.90437 33.4234 7.06351 34.62C7.22224 35.8166 8.24294 36.7109 9.44978 36.7109C10.0814 36.7154 10.5912 37.2276 10.5928 37.8592C10.594 38.4905 10.0863 39.0051 9.45509 39.0125H9.44487C8.81158 39.0092 8.2998 38.495 8.29898 37.8617C8.29898 37.5148 8.01753 37.2333 7.67061 37.2333C7.3237 37.2333 7.04224 37.5148 7.04224 37.8617C7.04387 38.9491 7.77248 39.9006 8.8214 40.1858V40.7C8.8214 41.0469 9.10286 41.3284 9.44978 41.3284C9.7971 41.3284 10.0782 41.0469 10.0782 40.7V40.1858C11.2437 39.8707 11.9956 38.7412 11.8369 37.5446C11.6777 36.348 10.657 35.4537 9.44978 35.4541C8.81445 35.4541 8.29898 34.9387 8.29898 34.3029C8.29898 33.6672 8.81445 33.1521 9.44978 33.1521Z" fill="white"/>
<path d="M20.4864 37.4125H15.1743C14.8274 37.4125 14.5459 37.6939 14.5459 38.0408C14.5459 38.3878 14.8274 38.6692 15.1743 38.6692H20.4864C20.8333 38.6692 21.1148 38.3878 21.1148 38.0408C21.1148 37.6939 20.8333 37.4125 20.4864 37.4125Z" fill="white"/>
<path d="M32.5646 42.2414C32.3809 42.2418 32.2059 42.1612 32.0864 42.0213L28.6254 37.9684C28.4761 37.7982 28.4303 37.5609 28.5047 37.3474C28.5796 37.1334 28.7633 36.9767 28.9863 36.9362C29.2088 36.8957 29.4359 36.9784 29.5811 37.1522L32.6436 40.7388L40.2266 34.5688C40.4958 34.3499 40.8918 34.3904 41.1107 34.6596C41.3296 34.9288 41.2891 35.3248 41.0199 35.5436L32.961 42.1007C32.849 42.1919 32.709 42.2414 32.5646 42.2414Z" fill="#14B19E"/>
</svg>
