<svg width="81" height="81" viewBox="0 0 81 81" fill="none" xmlns="http://www.w3.org/2000/svg">
<g clip-path="url(#clip0_8673_59665)">
<g clip-path="url(#clip1_8673_59665)">
<path d="M36.7307 9.66797C27.8413 9.66797 20.6094 16.9001 20.6094 25.7894C20.6094 26.1431 20.6221 26.4939 20.6446 26.8421H22.4645C22.4391 26.4944 22.4257 26.1434 22.4257 25.7894C22.4258 17.9016 28.8429 11.4844 36.7307 11.4844C44.6185 11.4844 51.0356 17.9016 51.0356 25.7894C51.0356 26.0177 51.0302 26.2478 51.0197 26.4731C50.996 26.9742 51.3829 27.3995 51.884 27.4231C51.8987 27.4238 51.9131 27.4242 51.9275 27.4242C52.4093 27.4242 52.8111 27.0452 52.8339 26.5588C52.846 26.3049 52.8519 26.0461 52.8519 25.7894C52.8522 16.9001 45.6201 9.66797 36.7307 9.66797Z" fill="#FFF0AD"/>
<path d="M27.1526 53.2913C27.248 52.8948 27.5602 52.5826 27.9567 52.4872L28.2113 52.2326V52.2137C27.6104 52.2137 27.1214 51.7249 27.1214 51.1239V47.1423C27.1214 46.5413 27.6104 46.0525 28.2113 46.0525V45.8103C27.6104 45.8103 27.1214 45.3214 27.1214 44.7204V40.7389C27.1214 40.1379 27.6104 39.649 28.2113 39.649H30.4126V39.5279C31.0814 39.5279 31.6236 38.9858 31.6236 38.317V34.3764C28.9513 32.7812 27.0831 29.9755 26.7807 26.7212H13.375C12.7062 26.7212 12.1641 27.2633 12.1641 27.9321V31.9137C12.1641 32.5825 12.7062 33.1246 13.375 33.1246C12.7062 33.1246 12.1641 33.6668 12.1641 34.3356V38.3171C12.1641 38.9859 12.7062 39.5281 13.375 39.5281C12.7062 39.5281 12.1641 40.0702 12.1641 40.739V44.7206C12.1641 45.3894 12.7062 45.9315 13.375 45.9315C12.7062 45.9315 12.1641 46.4736 12.1641 47.1424V51.124C12.1641 51.7928 12.7062 52.3349 13.375 52.3349C12.7062 52.3349 12.1641 52.8771 12.1641 53.5459V57.5274C12.1641 58.1962 12.7062 58.7384 13.375 58.7384H21.7058L27.1526 53.2913Z" fill="#FFE177"/>
<path d="M27.2098 57.9585L26.4297 58.7386H28.2104V58.6175C27.7624 58.6175 27.3771 58.3456 27.2098 57.9585Z" fill="#FFE177"/>
<path d="M31.242 53.9258L27.1191 58.0487C27.3142 58.4559 27.729 58.7378 28.2107 58.7378H45.2483C45.9171 58.7378 46.4593 58.1957 46.4593 57.5269V53.9258H31.242Z" fill="#FFE177"/>
<path d="M28.1137 52.3297L29.3691 51.0744C29.6845 50.7589 30.1041 50.5851 30.5503 50.5851H46.4595V47.1422C46.4595 46.4734 45.9174 45.9313 45.2486 45.9313C45.9174 45.9313 46.4595 45.3891 46.4595 44.7203V40.7388C46.4595 40.07 45.9174 39.5278 45.2486 39.5278H28.2109C27.5421 39.5278 27 40.07 27 40.7388V44.7203C27 45.3891 27.5421 45.9313 28.2109 45.9313C27.5421 45.9313 27 46.4734 27 47.1422V51.1238C27 51.7596 27.4905 52.2801 28.1137 52.3297Z" fill="#FFE177"/>
<path d="M45.0244 39.4533C44.7276 39.4533 44.4367 39.308 44.2626 39.0408C43.9888 38.6205 44.1076 38.0579 44.5276 37.784C44.9344 37.519 45.3327 37.2295 45.7115 36.9237C46.1019 36.6087 46.6734 36.6696 46.9886 37.0597C47.3038 37.45 47.2429 38.0217 46.8526 38.3369C46.4262 38.6814 45.9775 39.0074 45.5193 39.306C45.3662 39.4056 45.1944 39.4533 45.0244 39.4533ZM48.5704 36.2494C48.3701 36.2494 48.1685 36.1834 48.0004 36.0478C47.6101 35.7325 47.5492 35.1607 47.8644 34.7706C48.1701 34.3919 48.4596 33.9936 48.7248 33.5865C48.9985 33.1663 49.5612 33.0474 49.9815 33.3213C50.4018 33.5951 50.5205 34.1577 50.2467 34.578C49.9479 35.0366 49.6218 35.4854 49.2774 35.9119C49.098 36.134 48.8354 36.2494 48.5704 36.2494ZM50.9535 32.1052C50.8461 32.1052 50.737 32.0861 50.6307 32.0456C50.1619 31.8672 49.9265 31.3427 50.1047 30.8738C50.2775 30.4197 50.4284 29.9514 50.5535 29.4819C50.6826 28.9972 51.1802 28.7086 51.6648 28.8381C52.1495 28.967 52.4379 29.4647 52.3086 29.9494C52.1677 30.479 51.9973 31.0073 51.8024 31.5198C51.6645 31.8821 51.3196 32.1052 50.9535 32.1052Z" fill="#FFF0AD"/>
<path d="M17.9766 57.527V53.5454C17.9766 52.8766 18.5187 52.3345 19.1875 52.3345H13.375C12.7062 52.3345 12.1641 52.8766 12.1641 53.5454V57.527C12.1641 58.1958 12.7062 58.7379 13.375 58.7379H19.1875C18.5187 58.7379 17.9766 58.1958 17.9766 57.527Z" fill="#FFD15B"/>
<path d="M28.2112 52.2135C27.6103 52.2135 27.1213 51.7246 27.1213 51.1237V47.1421C27.1213 46.5411 27.6103 46.0522 28.2112 46.0522V45.9312H13.375C12.7062 45.9312 12.1641 46.4733 12.1641 47.1421V51.1237C12.1641 51.7925 12.7062 52.3346 13.375 52.3346H28.2113L28.2112 52.2135Z" fill="#FFD15B"/>
<path d="M17.9766 51.1237V47.1421C17.9766 46.4733 18.5187 45.9312 19.1875 45.9312H13.375C12.7062 45.9312 12.1641 46.4733 12.1641 47.1421V51.1237C12.1641 51.7925 12.7062 52.3346 13.375 52.3346H19.1875C18.5187 52.3346 17.9766 51.7925 17.9766 51.1237Z" fill="#FFC344"/>
<path d="M17.9766 44.7198V40.7383C17.9766 40.0695 18.5187 39.5273 19.1875 39.5273H13.375C12.7062 39.5273 12.1641 40.0695 12.1641 40.7383V44.7198C12.1641 45.3886 12.7062 45.9308 13.375 45.9308H19.1875C18.5187 45.9308 17.9766 45.3886 17.9766 44.7198Z" fill="#FFD15B"/>
<path d="M29.9508 33.124H13.375C12.7062 33.124 12.1641 33.6662 12.1641 34.335V38.3165C12.1641 38.9853 12.7062 39.5275 13.375 39.5275H30.4126C31.0814 39.5275 31.6236 38.9853 31.6236 38.3165V34.3759C31.0222 34.017 30.4619 33.5969 29.9508 33.124Z" fill="#FFD15B"/>
<path d="M17.9766 38.3165V34.335C17.9766 33.6662 18.5187 33.124 19.1875 33.124H13.375C12.7062 33.124 12.1641 33.6662 12.1641 34.335V38.3165C12.1641 38.9853 12.7062 39.5275 13.375 39.5275H19.1875C18.5187 39.5275 17.9766 38.9853 17.9766 38.3165Z" fill="#FFC344"/>
<path d="M17.9766 31.9132V27.9316C17.9766 27.2628 18.5187 26.7207 19.1875 26.7207H13.375C12.7062 26.7207 12.1641 27.2628 12.1641 27.9316V31.9132C12.1641 32.582 12.7062 33.1241 13.375 33.1241H19.1875C18.5187 33.1241 17.9766 32.582 17.9766 31.9132Z" fill="#FFD15B"/>
<path d="M28.1037 52.3403C27.5209 52.3918 27.0572 52.8555 27.0059 53.4383L28.1037 52.3403Z" fill="#FFD15B"/>
<path d="M32.8122 57.5274V53.9263H31.242L27.1191 58.0491C27.3142 58.4564 27.729 58.7383 28.2107 58.7383H34.0232C33.3545 58.7383 32.8122 58.1962 32.8122 57.5274Z" fill="#FFD15B"/>
<path d="M28.1137 52.3296L29.3691 51.0742C29.6845 50.7588 30.1041 50.585 30.5503 50.585H46.4595V47.1421C46.4595 46.4733 45.9174 45.9312 45.2486 45.9312H28.2109C27.5421 45.9312 27 46.4733 27 47.1421V51.1237C27 51.7595 27.4905 52.28 28.1137 52.3296Z" fill="#FFD15B"/>
<path d="M28.1137 52.3296L29.3691 51.0742C29.6845 50.7588 30.1041 50.585 30.5503 50.585H32.8125V47.1421C32.8125 46.4733 33.3546 45.9312 34.0234 45.9312H28.2109C27.5421 45.9312 27 46.4733 27 47.1421V51.1237C27 51.7595 27.4905 52.28 28.1137 52.3296Z" fill="#FFC344"/>
<path d="M32.8125 44.7203V40.7388C32.8125 40.07 33.3546 39.5278 34.0234 39.5278H28.2109C27.5421 39.5278 27 40.07 27 40.7388V44.7203C27 45.3891 27.5421 45.9313 28.2109 45.9313H34.0234C33.3548 45.9313 32.8125 45.3891 32.8125 44.7203Z" fill="#FFD15B"/>
<path d="M36.7307 35.9047C42.3173 35.9047 46.8461 31.3759 46.8461 25.7893C46.8461 20.2027 42.3173 15.6738 36.7307 15.6738C31.1441 15.6738 26.6152 20.2027 26.6152 25.7893C26.6152 31.3759 31.1441 35.9047 36.7307 35.9047Z" fill="#FFE177"/>
<path d="M32.4277 25.7893C32.4277 21.2131 35.4672 17.3487 39.6369 16.0997C38.7163 15.824 37.7412 15.6738 36.7307 15.6738C31.1441 15.6738 26.6152 20.2026 26.6152 25.7893C26.6152 31.3758 31.144 35.9047 36.7307 35.9047C37.7412 35.9047 38.7163 35.7547 39.6369 35.4788C35.4673 34.2299 32.4277 30.3654 32.4277 25.7893Z" fill="#FFD15B"/>
<path d="M38.0397 24.8812H35.4228C34.8741 24.8812 34.4277 24.4348 34.4277 23.8861V23.3309C34.4277 22.7823 34.8741 22.3359 35.4228 22.3359H38.0397C38.5884 22.3359 39.0347 22.7823 39.0347 23.3309C39.0347 23.8326 39.4414 24.2391 39.9429 24.2391C40.4445 24.2391 40.8512 23.8326 40.8512 23.3309C40.8512 21.7807 39.59 20.5195 38.0398 20.5195H37.6395V19.6831C37.6395 19.1814 37.2329 18.7749 36.7313 18.7749C36.2297 18.7749 35.8231 19.1814 35.8231 19.6831V20.5195H35.4228C33.8725 20.5195 32.6113 21.7807 32.6113 23.3309V23.8861C32.6113 25.4364 33.8725 26.6976 35.4228 26.6976H38.0397C38.5884 26.6976 39.0347 27.1439 39.0347 27.6926V28.2478C39.0347 28.7965 38.5884 29.2429 38.0397 29.2429H35.4228C34.8741 29.2429 34.4277 28.7965 34.4277 28.2478C34.4277 27.7461 34.0211 27.3396 33.5195 27.3396C33.018 27.3396 32.6113 27.7461 32.6113 28.2478C32.6113 29.7981 33.8725 31.0593 35.4228 31.0593H35.8231V31.8957C35.8231 32.3973 36.2297 32.8039 36.7313 32.8039C37.2329 32.8039 37.6395 32.3973 37.6395 31.8957V31.0593H38.0398C39.5901 31.0593 40.8512 29.7981 40.8512 28.2478V27.6926C40.851 26.1424 39.59 24.8812 38.0397 24.8812Z" fill="#FE860A"/>
<path d="M68.0345 31.2114H57.3812C57.1532 31.2114 56.9678 31.3968 56.9678 31.6248V34.3811C56.9678 34.6091 57.1532 34.7945 57.3812 34.7945H62.3311L46.662 50.4636H30.5498C30.0713 50.4636 29.6213 50.65 29.283 50.9883L16.2656 64.0058C17.5382 64.251 18.5565 65.2188 18.8743 66.4644L31.2919 54.0468H47.4042C47.8827 54.0468 48.3326 53.8604 48.671 53.5221L64.865 37.3282V42.2365C64.865 42.4645 65.0504 42.6499 65.2784 42.6499H68.0347C68.2627 42.6499 68.4481 42.4645 68.4481 42.2365V31.625C68.4481 31.3968 68.2626 31.2114 68.0345 31.2114Z" fill="#00F2A6"/>
<path d="M15.6319 70.7595C17.5472 70.7595 19.0998 69.2069 19.0998 67.2916C19.0998 65.3764 17.5472 63.8237 15.6319 63.8237C13.7167 63.8237 12.1641 65.3764 12.1641 67.2916C12.1641 69.2069 13.7167 70.7595 15.6319 70.7595Z" fill="#FD6930"/>
<path d="M15.0703 67.2916C15.0703 65.8954 15.8959 64.6927 17.0851 64.1429C16.643 63.9385 16.151 63.8237 15.6319 63.8237C13.7167 63.8237 12.1641 65.3764 12.1641 67.2916C12.1641 69.2068 13.7167 70.7595 15.6319 70.7595C16.151 70.7595 16.643 70.6447 17.0851 70.4403C15.8958 69.8905 15.0703 68.6878 15.0703 67.2916Z" fill="#FD5426"/>
<path d="M26.1134 69.9723H31.0855V65.3174C31.0855 65.1167 30.9229 64.9541 30.7222 64.9541H26.4766C26.2759 64.9541 26.1133 65.1167 26.1133 65.3174L26.1134 69.9723Z" fill="#FD6930"/>
<path d="M26.1133 69.9723H28.4141V65.3174C28.4141 65.1167 28.5767 64.9541 28.7773 64.9541H26.4766C26.2759 64.9541 26.1133 65.1167 26.1133 65.3174V69.9723Z" fill="#FD5426"/>
<path d="M40.4254 69.9727V62.4873C40.4254 62.2867 40.2627 62.124 40.0621 62.124H35.8164C35.6158 62.124 35.4531 62.2867 35.4531 62.4873V69.9727H40.4254Z" fill="#FD6930"/>
<path d="M37.5117 69.9727V62.4873C37.5117 62.2867 37.6743 62.124 37.875 62.124H35.8164C35.6158 62.124 35.4531 62.2867 35.4531 62.4873V69.9727H37.5117Z" fill="#FD5426"/>
<path d="M49.7672 69.9727V62.4873C49.7672 62.2867 49.6045 62.124 49.4039 62.124H45.1582C44.9576 62.124 44.7949 62.2867 44.7949 62.4873V69.9727H49.7672Z" fill="#FFE177"/>
<path d="M46.8535 69.9727V62.4873C46.8535 62.2867 47.0161 62.124 47.2168 62.124H45.1582C44.9576 62.124 44.7949 62.2867 44.7949 62.4873V69.9727H46.8535Z" fill="#FFD15B"/>
<path d="M59.107 69.9723V53.48C59.107 53.2793 58.9444 53.1167 58.7437 53.1167H54.498C54.2974 53.1167 54.1348 53.2793 54.1348 53.48V69.9723H59.107Z" fill="#FFE177"/>
<path d="M56.1934 69.9723V53.48C56.1934 53.2793 56.356 53.1167 56.5566 53.1167H54.498C54.2974 53.1167 54.1348 53.2793 54.1348 53.48V69.9723H56.1934Z" fill="#FFD15B"/>
<path d="M68.4488 69.9726V46.335C68.4488 46.1343 68.2862 45.9717 68.0855 45.9717H63.8398C63.6392 45.9717 63.4766 46.1343 63.4766 46.335V69.9726H68.4488Z" fill="#00F2A6"/>
<path d="M65.5352 69.9726V46.335C65.5352 46.1343 65.6978 45.9717 65.8984 45.9717H63.8398C63.6392 45.9717 63.4766 46.1343 63.4766 46.335V69.9726H65.5352Z" fill="#05E39C"/>
<path d="M68.4484 71.668H26.1133C25.6117 71.668 25.2051 71.2615 25.2051 70.7598C25.2051 70.2581 25.6117 69.8516 26.1133 69.8516H68.4484C68.9501 69.8516 69.3566 70.2581 69.3566 70.7598C69.3566 71.2615 68.9501 71.668 68.4484 71.668Z" fill="#8AC9FE"/>
</g>
<g clip-path="url(#clip2_8673_59665)">
<circle cx="66.7598" cy="14.668" r="13" fill="white"/>
<path d="M66.7598 0.667969C59.0405 0.667969 52.7598 6.94867 52.7598 14.668C52.7598 22.3873 59.0405 28.668 66.7598 28.668C74.4791 28.668 80.7598 22.3873 80.7598 14.668C80.7598 6.94867 74.4791 0.667969 66.7598 0.667969ZM74.5843 10.9838L65.637 19.861C65.1106 20.3873 64.2685 20.4224 63.7071 19.896L58.9703 15.5802C58.4089 15.0539 58.3738 14.1767 58.865 13.6153C59.3913 13.0539 60.2685 13.0188 60.8299 13.5452L64.5843 16.9838L72.5843 8.98376C73.1457 8.42235 74.0229 8.42235 74.5843 8.98376C75.1457 9.54516 75.1457 10.4224 74.5843 10.9838Z" fill="#00BA6C"/>
</g>
</g>
<defs>
<clipPath id="clip0_8673_59665">
<rect width="80" height="80" fill="white" transform="translate(0.759766 0.667969)"/>
</clipPath>
<clipPath id="clip1_8673_59665">
<rect width="62" height="62" fill="white" transform="translate(9.75977 9.66797)"/>
</clipPath>
<clipPath id="clip2_8673_59665">
<rect width="28" height="28" fill="white" transform="translate(52.7598 0.667969)"/>
</clipPath>
</defs>
</svg>
