<svg width="80" height="80" viewBox="0 0 80 80" fill="none" xmlns="http://www.w3.org/2000/svg">
<g clip-path="url(#clip0_10088_757)">
<path d="M59.9067 19.1226C59.7775 18.6703 60.044 18.1979 60.4963 18.0687C60.9486 17.9394 61.4211 18.2019 61.5503 18.6542L63.206 24.421C63.3999 25.0954 62.7254 25.7496 62.0106 25.4185L56.5387 23.0844C56.1026 22.8986 55.9006 22.3978 56.0864 21.9657C56.2721 21.5295 56.7729 21.3276 57.205 21.5134L59.1394 22.3413C50.8325 14.3656 38.342 12.407 27.9675 17.5881C24.1473 19.4983 20.8358 22.2686 18.2917 25.6487C18.0091 26.0242 17.476 26.101 17.1004 25.8182C16.7249 25.5356 16.6481 25.0025 16.9308 24.627C25.282 13.5094 40.3611 9.83455 52.88 15.9203C55.7229 17.3013 58.3075 19.1307 60.5406 21.3195L59.9067 19.1226Z" fill="#11BEF7"/>
<path fill-rule="evenodd" clip-rule="evenodd" d="M30.9729 46.8099C30.6263 37.272 9.34656 37.272 9 46.8099V51.9468H30.9729V46.8099Z" fill="#00ADE6"/>
<path fill-rule="evenodd" clip-rule="evenodd" d="M30.9728 46.81C30.8191 42.6268 26.6397 40.2763 21.9672 39.7655C17.291 40.2763 13.1116 42.6269 12.9579 46.81V51.9468H30.9728V46.81Z" fill="#11BEF7"/>
<path fill-rule="evenodd" clip-rule="evenodd" d="M19.9846 28.8379C16.7767 28.8379 14.1762 31.4385 14.1762 34.6463C14.1762 37.8542 16.7767 40.4548 19.9846 40.4548C23.1925 40.4548 25.7967 37.8542 25.7967 34.6463C25.7967 31.4385 23.1925 28.8379 19.9846 28.8379Z" fill="#E2B698"/>
<path fill-rule="evenodd" clip-rule="evenodd" d="M21.3098 40.3049C23.8782 39.7048 25.7965 37.4006 25.7965 34.6464C25.7965 31.8923 23.8782 29.5881 21.3098 28.988C18.7378 29.5881 16.8231 31.8923 16.8231 34.6464C16.8231 37.4006 18.7378 39.7048 21.3098 40.3049Z" fill="#EFC9AE"/>
<path fill-rule="evenodd" clip-rule="evenodd" d="M71.0002 46.8099C70.6536 37.272 49.3738 37.272 49.0273 46.8099V51.9468H71.0002V46.8099Z" fill="#CD212D"/>
<path fill-rule="evenodd" clip-rule="evenodd" d="M71.0001 46.81C70.8465 42.6268 66.667 40.2763 61.9945 39.7655C57.3185 40.2763 53.1389 42.6269 52.9853 46.81V51.9468H71.0001V46.81Z" fill="#EE2B39"/>
<path fill-rule="evenodd" clip-rule="evenodd" d="M60.0116 28.8379C56.8038 28.8379 54.2032 31.4385 54.2032 34.6463C54.2032 37.8542 56.8038 40.4548 60.0116 40.4548C63.2195 40.4548 65.8237 37.8542 65.8237 34.6463C65.8237 31.4385 63.2231 28.8379 60.0116 28.8379Z" fill="#E2B698"/>
<path fill-rule="evenodd" clip-rule="evenodd" d="M61.3371 40.3049C63.909 39.7048 65.8238 37.4006 65.8238 34.6464C65.8238 31.8923 63.909 29.5881 61.3371 28.988C58.7651 29.5881 56.8503 31.8923 56.8503 34.6464C56.8503 37.4006 58.7651 39.7048 61.3371 40.3049Z" fill="#EFC9AE"/>
<path fill-rule="evenodd" clip-rule="evenodd" d="M40.218 28.1771C46.9659 28.1771 52.4316 33.6462 52.4316 40.3907C52.4316 47.1352 46.9661 52.6078 40.218 52.6078C33.47 52.6078 28.0045 47.1388 28.0045 40.3907C28.0045 33.6427 33.4735 28.1771 40.218 28.1771Z" fill="#3CB54B"/>
<path fill-rule="evenodd" clip-rule="evenodd" d="M46.3119 34.2965C49.677 37.6651 49.677 43.12 46.3119 46.485C42.9469 49.8536 37.4921 49.8536 34.1235 46.485C30.7584 43.12 30.7584 37.6651 34.1235 34.2965C37.4921 30.9315 42.9469 30.9315 46.3119 34.2965Z" fill="#F7B84E"/>
<path fill-rule="evenodd" clip-rule="evenodd" d="M46.3121 34.2965C49.6772 37.6651 49.6772 43.12 46.3121 46.485C44.9833 47.8174 43.3257 48.6212 41.6003 48.8998C39.8713 48.6212 38.2139 47.8174 36.885 46.485C33.52 43.12 33.52 37.6651 36.885 34.2965C38.2139 32.9676 39.8715 32.1638 41.6003 31.8852C43.3257 32.1638 44.9833 32.9676 46.3121 34.2965Z" fill="#FFCB5B"/>
<path d="M61.7076 55.1362C61.9902 54.7607 62.5233 54.6839 62.8989 54.9667C63.2744 55.2494 63.3512 55.7825 63.0685 56.158C54.7213 67.2714 39.6382 70.9423 27.1234 64.8605C24.2804 63.4795 21.6958 61.646 19.4627 59.4613L20.0926 61.6581C20.2219 62.1104 19.9594 62.5828 19.5071 62.712C19.0548 62.8412 18.5824 62.5788 18.4532 62.1225L16.7935 56.3597C16.6037 55.6853 17.2781 55.0311 17.9929 55.3582L23.4648 57.6965C23.8968 57.8822 24.0987 58.383 23.9171 58.8151C23.7313 59.2513 23.2305 59.4532 22.7985 59.2674L20.8601 58.4395C32.6964 69.7994 51.826 68.2648 61.7077 55.1361L61.7076 55.1362Z" fill="#EE2B39"/>
<path d="M43.0472 38.3328C43.0472 38.7503 42.7114 39.0858 42.2935 39.0858C41.8756 39.0858 41.5362 38.7503 41.5362 38.3328C41.5362 38.0651 41.4041 37.8188 41.1933 37.6333C40.9504 37.4263 40.6075 37.2942 40.2181 37.2942C39.8323 37.2942 39.4893 37.4263 39.2464 37.6333C39.0321 37.8188 38.9035 38.0651 38.9035 38.3328C38.9035 39.0609 39.6715 39.2321 40.4575 39.4034C41.89 39.7211 43.3581 40.0423 43.3581 42.1801C43.3581 42.9796 42.9901 43.6933 42.3972 44.2073C42.0078 44.5428 41.5185 44.7926 40.9755 44.9139V45.5135C40.9755 45.931 40.6361 46.27 40.2182 46.27C39.8003 46.27 39.4645 45.931 39.4645 45.5135V44.9139C38.9214 44.7926 38.4321 44.5428 38.0427 44.2073C37.4496 43.6933 37.0818 42.9796 37.0818 42.1801C37.0818 41.7625 37.4212 41.4271 37.8355 41.4271C38.2535 41.4271 38.5928 41.7626 38.5928 42.1801C38.5928 42.5227 38.7606 42.8368 39.0286 43.0687C39.3251 43.3257 39.7466 43.4827 40.2181 43.4827C40.6932 43.4827 41.1112 43.3257 41.4112 43.0687C41.6792 42.8368 41.847 42.5227 41.847 42.1801C41.847 41.2522 40.979 41.0594 40.1324 40.8739C38.7464 40.5669 37.3889 40.2671 37.3889 38.3328C37.3889 37.6083 37.7211 36.9588 38.2606 36.4948C38.5928 36.2093 39.0036 35.9916 39.4645 35.8774V35.2636C39.4645 34.8462 39.8003 34.5106 40.2182 34.5106C40.6361 34.5106 40.9755 34.8462 40.9755 35.2636V35.8774C41.4327 35.9916 41.8471 36.2093 42.1793 36.4948C42.7152 36.9588 43.0474 37.6083 43.0474 38.3328H43.0472Z" fill="#3CB54B"/>
</g>
<g clip-path="url(#clip1_10088_757)">
<path d="M68 0C61.3835 0 56 5.38346 56 12C56 18.6165 61.3835 24 68 24C74.6165 24 80 18.6165 80 12C80 5.38346 74.6165 0 68 0ZM74.7068 8.84211L67.0376 16.4511C66.5865 16.9023 65.8647 16.9323 65.3835 16.4812L61.3233 12.782C60.8421 12.3308 60.812 11.5789 61.2331 11.0977C61.6842 10.6165 62.4361 10.5865 62.9173 11.0376L66.1353 13.985L72.9925 7.12782C73.4737 6.64662 74.2256 6.64662 74.7068 7.12782C75.188 7.60902 75.188 8.3609 74.7068 8.84211Z" fill="#00BA6C"/>
</g>
<defs>
<clipPath id="clip0_10088_757">
<rect width="62" height="62" fill="white" transform="translate(9 9)"/>
</clipPath>
<clipPath id="clip1_10088_757">
<rect width="24" height="24" fill="white" transform="translate(56)"/>
</clipPath>
</defs>
</svg>
