<svg width="81" height="80" viewBox="0 0 81 80" fill="none" xmlns="http://www.w3.org/2000/svg">
<g clip-path="url(#clip0_8673_59744)">
<path d="M36.9514 9C28.062 9 20.8301 16.2321 20.8301 25.1215C20.8301 25.4752 20.8428 25.826 20.8653 26.1741H22.6852C22.6598 25.8265 22.6464 25.4754 22.6464 25.1215C22.6465 17.2336 29.0636 10.8164 36.9514 10.8164C44.8392 10.8164 51.2563 17.2336 51.2563 25.1215C51.2563 25.3497 51.2509 25.5798 51.2404 25.8051C51.2167 26.3062 51.6036 26.7315 52.1047 26.7551C52.1194 26.7559 52.1338 26.7562 52.1482 26.7562C52.63 26.7562 53.0318 26.3772 53.0546 25.8909C53.0667 25.6369 53.0726 25.3782 53.0726 25.1215C53.0729 16.2321 45.8408 9 36.9514 9Z" fill="#FFF0AD"/>
<path d="M27.3733 52.6234C27.4687 52.2268 27.7809 51.9146 28.1775 51.8192L28.432 51.5646V51.5458C27.8311 51.5458 27.3421 51.0569 27.3421 50.4559V46.4744C27.3421 45.8734 27.8311 45.3845 28.432 45.3845V45.1423C27.8311 45.1423 27.3421 44.6535 27.3421 44.0525V40.0709C27.3421 39.4699 27.8311 38.9811 28.432 38.9811H30.6334V38.86C31.3022 38.86 31.8443 38.3178 31.8443 37.649V33.7084C29.172 32.1132 27.3038 29.3075 27.0014 26.0532H13.5957C12.9269 26.0532 12.3848 26.5954 12.3848 27.2642V31.2457C12.3848 31.9145 12.9269 32.4567 13.5957 32.4567C12.9269 32.4567 12.3848 32.9988 12.3848 33.6676V37.6492C12.3848 38.318 12.9269 38.8601 13.5957 38.8601C12.9269 38.8601 12.3848 39.4022 12.3848 40.071V44.0526C12.3848 44.7214 12.9269 45.2635 13.5957 45.2635C12.9269 45.2635 12.3848 45.8057 12.3848 46.4745V50.456C12.3848 51.1248 12.9269 51.667 13.5957 51.667C12.9269 51.667 12.3848 52.2091 12.3848 52.8779V56.8595C12.3848 57.5283 12.9269 58.0704 13.5957 58.0704H21.9265L27.3733 52.6234Z" fill="#FFE177"/>
<path d="M27.4305 57.2905L26.6504 58.0706H28.4311V57.9495C27.9831 57.9495 27.5978 57.6777 27.4305 57.2905Z" fill="#FFE177"/>
<path d="M31.4627 53.2578L27.3398 57.3807C27.5349 57.7879 27.9497 58.0698 28.4314 58.0698H45.469C46.1378 58.0698 46.68 57.5277 46.68 56.8589V53.2578H31.4627Z" fill="#FFE177"/>
<path d="M28.3344 51.6618L29.5898 50.4064C29.9052 50.0909 30.3248 49.9172 30.7711 49.9172H46.6802V46.4742C46.6802 45.8054 46.1381 45.2633 45.4693 45.2633C46.1381 45.2633 46.6802 44.7212 46.6802 44.0524V40.0708C46.6802 39.402 46.1381 38.8599 45.4693 38.8599H28.4316C27.7628 38.8599 27.2207 39.402 27.2207 40.0708V44.0524C27.2207 44.7212 27.7628 45.2633 28.4316 45.2633C27.7628 45.2633 27.2207 45.8054 27.2207 46.4742V50.4558C27.2207 51.0917 27.7113 51.6121 28.3344 51.6618Z" fill="#FFE177"/>
<path d="M45.2451 38.7853C44.9483 38.7853 44.6574 38.64 44.4833 38.3729C44.2095 37.9525 44.3283 37.3899 44.7483 37.116C45.1551 36.8511 45.5534 36.5615 45.9322 36.2558C46.3226 35.9407 46.8941 36.0016 47.2093 36.3918C47.5245 36.782 47.4636 37.3537 47.0733 37.6689C46.6469 38.0135 46.1982 38.3394 45.74 38.6381C45.5869 38.7376 45.4151 38.7853 45.2451 38.7853ZM48.7911 35.5814C48.5908 35.5814 48.3892 35.5154 48.2211 35.3798C47.8308 35.0646 47.7699 34.4928 48.0851 34.1026C48.3909 33.7239 48.6803 33.3257 48.9455 32.9186C49.2193 32.4984 49.7819 32.3794 50.2022 32.6534C50.6225 32.9272 50.7412 33.4898 50.4674 33.9101C50.1686 34.3687 49.8425 34.8174 49.4981 35.2439C49.3187 35.466 49.0561 35.5814 48.7911 35.5814ZM51.1742 31.4372C51.0668 31.4372 50.9577 31.4181 50.8514 31.3776C50.3826 31.1993 50.1472 30.6747 50.3254 30.2058C50.4982 29.7517 50.6491 29.2834 50.7742 28.814C50.9033 28.3292 51.4009 28.0407 51.8855 28.1701C52.3702 28.2991 52.6586 28.7968 52.5293 29.2814C52.3884 29.811 52.218 30.3394 52.0231 30.8518C51.8853 31.2142 51.5403 31.4372 51.1742 31.4372Z" fill="#FFF0AD"/>
<path d="M18.1973 56.859V52.8774C18.1973 52.2086 18.7394 51.6665 19.4082 51.6665H13.5957C12.9269 51.6665 12.3848 52.2086 12.3848 52.8774V56.859C12.3848 57.5278 12.9269 58.0699 13.5957 58.0699H19.4082C18.7394 58.0699 18.1973 57.5278 18.1973 56.859Z" fill="#FFD15B"/>
<path d="M28.4319 51.5455C27.831 51.5455 27.342 51.0567 27.342 50.4557V46.4741C27.342 45.8731 27.831 45.3843 28.4319 45.3843V45.2632H13.5957C12.9269 45.2632 12.3848 45.8053 12.3848 46.4741V50.4557C12.3848 51.1245 12.9269 51.6666 13.5957 51.6666H28.432L28.4319 51.5455Z" fill="#FFD15B"/>
<path d="M18.1973 50.4557V46.4741C18.1973 45.8053 18.7394 45.2632 19.4082 45.2632H13.5957C12.9269 45.2632 12.3848 45.8053 12.3848 46.4741V50.4557C12.3848 51.1245 12.9269 51.6666 13.5957 51.6666H19.4082C18.7394 51.6666 18.1973 51.1245 18.1973 50.4557Z" fill="#FFC344"/>
<path d="M18.1973 44.0519V40.0703C18.1973 39.4015 18.7394 38.8594 19.4082 38.8594H13.5957C12.9269 38.8594 12.3848 39.4015 12.3848 40.0703V44.0519C12.3848 44.7207 12.9269 45.2628 13.5957 45.2628H19.4082C18.7394 45.2628 18.1973 44.7207 18.1973 44.0519Z" fill="#FFD15B"/>
<path d="M30.1715 32.4561H13.5957C12.9269 32.4561 12.3848 32.9982 12.3848 33.667V37.6486C12.3848 38.3174 12.9269 38.8595 13.5957 38.8595H30.6334C31.3022 38.8595 31.8443 38.3174 31.8443 37.6486V33.7079C31.2429 33.349 30.6826 32.9289 30.1715 32.4561Z" fill="#FFD15B"/>
<path d="M18.1973 37.6486V33.667C18.1973 32.9982 18.7394 32.4561 19.4082 32.4561H13.5957C12.9269 32.4561 12.3848 32.9982 12.3848 33.667V37.6486C12.3848 38.3174 12.9269 38.8595 13.5957 38.8595H19.4082C18.7394 38.8595 18.1973 38.3174 18.1973 37.6486Z" fill="#FFC344"/>
<path d="M18.1973 31.2452V27.2637C18.1973 26.5949 18.7394 26.0527 19.4082 26.0527H13.5957C12.9269 26.0527 12.3848 26.5949 12.3848 27.2637V31.2452C12.3848 31.914 12.9269 32.4562 13.5957 32.4562H19.4082C18.7394 32.4562 18.1973 31.914 18.1973 31.2452Z" fill="#FFD15B"/>
<path d="M28.3244 51.6724C27.7416 51.7238 27.2779 52.1875 27.2266 52.7703L28.3244 51.6724Z" fill="#FFD15B"/>
<path d="M33.0329 56.8594V53.2583H31.4627L27.3398 57.3812C27.5349 57.7884 27.9497 58.0703 28.4314 58.0703H34.2439C33.5752 58.0703 33.0329 57.5282 33.0329 56.8594Z" fill="#FFD15B"/>
<path d="M28.3344 51.6617L29.5898 50.4063C29.9052 50.0908 30.3248 49.9171 30.7711 49.9171H46.6802V46.4741C46.6802 45.8053 46.1381 45.2632 45.4693 45.2632H28.4316C27.7628 45.2632 27.2207 45.8053 27.2207 46.4741V50.4557C27.2207 51.0915 27.7113 51.612 28.3344 51.6617Z" fill="#FFD15B"/>
<path d="M28.3344 51.6617L29.5898 50.4063C29.9052 50.0908 30.3248 49.9171 30.7711 49.9171H33.0332V46.4741C33.0332 45.8053 33.5753 45.2632 34.2441 45.2632H28.4316C27.7628 45.2632 27.2207 45.8053 27.2207 46.4741V50.4557C27.2207 51.0915 27.7113 51.612 28.3344 51.6617Z" fill="#FFC344"/>
<path d="M33.0332 44.0524V40.0708C33.0332 39.402 33.5753 38.8599 34.2441 38.8599H28.4316C27.7628 38.8599 27.2207 39.402 27.2207 40.0708V44.0524C27.2207 44.7212 27.7628 45.2633 28.4316 45.2633H34.2441C33.5755 45.2633 33.0332 44.7212 33.0332 44.0524Z" fill="#FFD15B"/>
<path d="M36.9514 35.2367C42.538 35.2367 47.0668 30.7079 47.0668 25.1213C47.0668 19.5347 42.538 15.0059 36.9514 15.0059C31.3648 15.0059 26.8359 19.5347 26.8359 25.1213C26.8359 30.7079 31.3648 35.2367 36.9514 35.2367Z" fill="#FFE177"/>
<path d="M32.6484 25.1213C32.6484 20.5452 35.6879 16.6807 39.8576 15.4317C38.937 15.156 37.9619 15.0059 36.9514 15.0059C31.3648 15.0059 26.8359 19.5346 26.8359 25.1213C26.8359 30.7078 31.3647 35.2367 36.9514 35.2367C37.9619 35.2367 38.937 35.0867 39.8576 34.8109C35.688 33.5619 32.6484 29.6974 32.6484 25.1213Z" fill="#FFD15B"/>
<path d="M38.2604 24.2132H35.6435C35.0948 24.2132 34.6484 23.7669 34.6484 23.2182V22.663C34.6484 22.1143 35.0948 21.6679 35.6435 21.6679H38.2604C38.8091 21.6679 39.2554 22.1143 39.2554 22.663C39.2554 23.1647 39.6621 23.5712 40.1637 23.5712C40.6652 23.5712 41.0719 23.1647 41.0719 22.663C41.0719 21.1127 39.8107 19.8515 38.2605 19.8515H37.8602V19.0151C37.8602 18.5134 37.4536 18.1069 36.952 18.1069C36.4504 18.1069 36.0438 18.5134 36.0438 19.0151V19.8515H35.6435C34.0932 19.8515 32.832 21.1127 32.832 22.663V23.2182C32.832 24.7684 34.0932 26.0296 35.6435 26.0296H38.2604C38.8091 26.0296 39.2554 26.476 39.2554 27.0246V27.5799C39.2554 28.1285 38.8091 28.5749 38.2604 28.5749H35.6435C35.0948 28.5749 34.6484 28.1285 34.6484 27.5799C34.6484 27.0782 34.2418 26.6717 33.7402 26.6717C33.2387 26.6717 32.832 27.0782 32.832 27.5799C32.832 29.1301 34.0932 30.3913 35.6435 30.3913H36.0438V31.2277C36.0438 31.7294 36.4504 32.1359 36.952 32.1359C37.4536 32.1359 37.8602 31.7294 37.8602 31.2277V30.3913H38.2605C39.8108 30.3913 41.0719 29.1301 41.0719 27.5799V27.0246C41.0717 25.4744 39.8107 24.2132 38.2604 24.2132Z" fill="#FE860A"/>
<path d="M68.2552 30.5435H57.6019C57.3739 30.5435 57.1885 30.7289 57.1885 30.9569V33.7131C57.1885 33.9411 57.3739 34.1265 57.6019 34.1265H62.5518L46.8827 49.7957H30.7705C30.292 49.7957 29.842 49.982 29.5037 50.3204L16.4863 63.3378C17.7589 63.583 18.7772 64.5508 19.0951 65.7964L31.5126 53.3788H47.6249C48.1034 53.3788 48.5533 53.1925 48.8917 52.8541L65.0857 36.6603V41.5686C65.0857 41.7966 65.2711 41.982 65.4991 41.982H68.2554C68.4834 41.982 68.6688 41.7966 68.6688 41.5686V30.957C68.6688 30.7289 68.4833 30.5435 68.2552 30.5435Z" fill="#00F2A6"/>
<path d="M15.8526 70.0915C17.7679 70.0915 19.3205 68.5389 19.3205 66.6236C19.3205 64.7084 17.7679 63.1558 15.8526 63.1558C13.9374 63.1558 12.3848 64.7084 12.3848 66.6236C12.3848 68.5389 13.9374 70.0915 15.8526 70.0915Z" fill="#FD6930"/>
<path d="M15.291 66.6236C15.291 65.2274 16.1166 64.0247 17.3058 63.475C16.8637 63.2706 16.3717 63.1558 15.8526 63.1558C13.9374 63.1558 12.3848 64.7084 12.3848 66.6236C12.3848 68.5389 13.9374 70.0915 15.8526 70.0915C16.3717 70.0915 16.8637 69.9767 17.3058 69.7723C16.1165 69.2226 15.291 68.0199 15.291 66.6236Z" fill="#FD5426"/>
<path d="M26.3341 69.3044H31.3062V64.6494C31.3062 64.4488 31.1436 64.2861 30.9429 64.2861H26.6973C26.4966 64.2861 26.334 64.4488 26.334 64.6494L26.3341 69.3044Z" fill="#FD6930"/>
<path d="M26.334 69.3044H28.6348V64.6494C28.6348 64.4488 28.7974 64.2861 28.998 64.2861H26.6973C26.4966 64.2861 26.334 64.4488 26.334 64.6494V69.3044Z" fill="#FD5426"/>
<path d="M40.6461 69.3047V61.8193C40.6461 61.6187 40.4834 61.4561 40.2828 61.4561H36.0371C35.8365 61.4561 35.6738 61.6187 35.6738 61.8193V69.3047H40.6461Z" fill="#FD6930"/>
<path d="M37.7324 69.3047V61.8193C37.7324 61.6187 37.8951 61.4561 38.0957 61.4561H36.0371C35.8365 61.4561 35.6738 61.6187 35.6738 61.8193V69.3047H37.7324Z" fill="#FD5426"/>
<path d="M49.9879 69.3047V61.8193C49.9879 61.6187 49.8252 61.4561 49.6246 61.4561H45.3789C45.1783 61.4561 45.0156 61.6187 45.0156 61.8193V69.3047H49.9879Z" fill="#FFE177"/>
<path d="M47.0742 69.3047V61.8193C47.0742 61.6187 47.2368 61.4561 47.4375 61.4561H45.3789C45.1783 61.4561 45.0156 61.6187 45.0156 61.8193V69.3047H47.0742Z" fill="#FFD15B"/>
<path d="M59.3277 69.3044V52.812C59.3277 52.6114 59.1651 52.4487 58.9644 52.4487H54.7188C54.5181 52.4487 54.3555 52.6114 54.3555 52.812V69.3044H59.3277Z" fill="#FFE177"/>
<path d="M56.4141 69.3044V52.812C56.4141 52.6114 56.5767 52.4487 56.7773 52.4487H54.7188C54.5181 52.4487 54.3555 52.6114 54.3555 52.812V69.3044H56.4141Z" fill="#FFD15B"/>
<path d="M68.6695 69.3046V45.667C68.6695 45.4663 68.5069 45.3037 68.3062 45.3037H64.0605C63.8599 45.3037 63.6973 45.4663 63.6973 45.667V69.3046H68.6695Z" fill="#00F2A6"/>
<path d="M65.7559 69.3046V45.667C65.7559 45.4663 65.9185 45.3037 66.1191 45.3037H64.0605C63.8599 45.3037 63.6973 45.4663 63.6973 45.667V69.3046H65.7559Z" fill="#05E39C"/>
<path d="M68.6691 71H26.334C25.8324 71 25.4258 70.5935 25.4258 70.0918C25.4258 69.5901 25.8324 69.1836 26.334 69.1836H68.6691C69.1708 69.1836 69.5773 69.5901 69.5773 70.0918C69.5773 70.5935 69.1708 71 68.6691 71Z" fill="#8AC9FE"/>
<g clip-path="url(#clip1_8673_59744)">
<circle cx="66.9805" cy="14" r="13" fill="white"/>
<g clip-path="url(#clip2_8673_59744)">
<path d="M66.9805 28C74.7125 28 80.9805 21.732 80.9805 14C80.9805 6.26801 74.7125 0 66.9805 0C59.2485 0 52.9805 6.26801 52.9805 14C52.9805 21.732 59.2485 28 66.9805 28Z" fill="#F54B4B"/>
<path d="M72.0446 21.3829C71.7398 21.3838 71.4378 21.3242 71.1562 21.2076C70.8746 21.0911 70.6189 20.9197 70.4039 20.7036L66.9805 17.2813L63.5571 20.7053C63.1219 21.1404 62.5318 21.3848 61.9164 21.3848C61.3011 21.3848 60.7109 21.1404 60.2758 20.7053C59.8407 20.2702 59.5963 19.68 59.5963 19.0646C59.5963 18.4493 59.8407 17.8591 60.2758 17.424L63.6993 14L60.2753 10.5766C59.8402 10.1415 59.5957 9.55133 59.5957 8.93598C59.5957 8.32062 59.8402 7.73047 60.2753 7.29535C60.7104 6.86023 61.3005 6.61578 61.9159 6.61578C62.5313 6.61578 63.1214 6.86023 63.5565 7.29535L66.9805 10.7188L70.4039 7.2948C70.6194 7.07935 70.8752 6.90845 71.1567 6.79185C71.4382 6.67525 71.7399 6.61523 72.0446 6.61523C72.3493 6.61523 72.651 6.67525 72.9325 6.79185C73.214 6.90845 73.4697 7.07935 73.6852 7.2948C73.9006 7.51025 74.0715 7.76603 74.1881 8.04753C74.3047 8.32903 74.3648 8.63074 74.3648 8.93543C74.3648 9.24012 74.3047 9.54183 74.1881 9.82333C74.0715 10.1048 73.9006 10.3606 73.6852 10.5761L70.2618 14L73.6857 17.4235C74.0102 17.7479 74.2311 18.1612 74.3206 18.6112C74.4101 19.0611 74.3641 19.5275 74.1885 19.9514C74.0129 20.3752 73.7155 20.7375 73.3339 20.9923C72.9524 21.2471 72.5039 21.383 72.0451 21.3829H72.0446Z" fill="white"/>
</g>
</g>
</g>
<defs>
<clipPath id="clip0_8673_59744">
<rect width="80" height="80" fill="white" transform="translate(0.980469)"/>
</clipPath>
<clipPath id="clip1_8673_59744">
<rect width="28" height="28" fill="white" transform="translate(52.9805)"/>
</clipPath>
<clipPath id="clip2_8673_59744">
<rect width="28" height="28" fill="white" transform="translate(52.9805)"/>
</clipPath>
</defs>
</svg>
