<svg width="80" height="80" viewBox="0 0 80 80" fill="none" xmlns="http://www.w3.org/2000/svg">
<path d="M38.8169 60.6659H15.1989C12.9162 60.6659 11.0657 58.8154 11.0657 56.5328V52.3994H42.7871L38.8169 60.6659Z" fill="#D3DCFB"/>
<path d="M64.803 27.6V44.9646V56.5332H15.1989C12.9162 56.5332 11.0657 54.6826 11.0657 52.3999V27.6L40.0011 17.2666L64.803 27.6Z" fill="#EBF5FC"/>
<path d="M18.3649 35.8667H16.1691C15.6341 35.8667 15.2003 35.4329 15.2003 34.8979V32.7021C15.2003 32.1672 15.6341 31.7334 16.1691 31.7334H18.3649C18.8999 31.7334 19.3336 32.1672 19.3336 32.7021V34.8979C19.3336 35.4329 18.8999 35.8667 18.3649 35.8667Z" fill="#3C58A0"/>
<path d="M26.6316 35.8667H24.4358C23.9008 35.8667 23.467 35.4329 23.467 34.8979V32.7021C23.467 32.1672 23.9008 31.7334 24.4358 31.7334H26.6316C27.1666 31.7334 27.6003 32.1672 27.6003 32.7021V34.8979C27.6003 35.4329 27.1666 35.8667 26.6316 35.8667Z" fill="#3C58A0"/>
<path d="M34.8982 35.8667H32.7024C32.1674 35.8667 31.7336 35.4329 31.7336 34.8979V32.7021C31.7336 32.1672 32.1674 31.7334 32.7024 31.7334H34.8982C35.4332 31.7334 35.8669 32.1672 35.8669 32.7021V34.8979C35.8669 35.4329 35.4333 35.8667 34.8982 35.8667Z" fill="#3C58A0"/>
<path d="M43.1649 35.8667H40.9691C40.4341 35.8667 40.0003 35.4329 40.0003 34.8979V32.7021C40.0003 32.1672 40.4341 31.7334 40.9691 31.7334H43.1649C43.6999 31.7334 44.1336 32.1672 44.1336 32.7021V34.8979C44.1336 35.4329 43.6999 35.8667 43.1649 35.8667Z" fill="#3C58A0"/>
<path d="M51.4301 35.8667H49.2343C48.6994 35.8667 48.2656 35.4329 48.2656 34.8979V32.7021C48.2656 32.1672 48.6994 31.7334 49.2343 31.7334H51.4301C51.9651 31.7334 52.3989 32.1672 52.3989 32.7021V34.8979C52.3989 35.4329 51.9653 35.8667 51.4301 35.8667Z" fill="#3C58A0"/>
<path d="M59.6969 35.8667H57.5011C56.9661 35.8667 56.5323 35.4329 56.5323 34.8979V32.7021C56.5323 32.1672 56.9661 31.7334 57.5011 31.7334H59.6969C60.2319 31.7334 60.6656 32.1672 60.6656 32.7021V34.8979C60.6656 35.4329 60.2319 35.8667 59.6969 35.8667Z" fill="#3C58A0"/>
<path d="M18.3649 44.1333H16.1691C15.6341 44.1333 15.2003 43.6995 15.2003 43.1645V40.9687C15.2003 40.4338 15.6341 40 16.1691 40H18.3649C18.8999 40 19.3336 40.4338 19.3336 40.9687V43.1645C19.3336 43.6997 18.8999 44.1333 18.3649 44.1333Z" fill="#3C58A0"/>
<path d="M26.6316 44.1333H24.4358C23.9008 44.1333 23.467 43.6995 23.467 43.1645V40.9687C23.467 40.4338 23.9008 40 24.4358 40H26.6316C27.1666 40 27.6003 40.4338 27.6003 40.9687V43.1645C27.6003 43.6997 27.1666 44.1333 26.6316 44.1333Z" fill="#3C58A0"/>
<path d="M34.8982 44.1333H32.7024C32.1674 44.1333 31.7336 43.6995 31.7336 43.1645V40.9687C31.7336 40.4338 32.1674 40 32.7024 40H34.8982C35.4332 40 35.8669 40.4338 35.8669 40.9687V43.1645C35.8669 43.6997 35.4333 44.1333 34.8982 44.1333Z" fill="#3C58A0"/>
<path d="M44.1336 44.1333V41.0333C44.1336 40.4626 43.6711 40 43.1003 40H41.0336C40.4629 40 40.0003 40.4626 40.0003 41.0333V43.1C40.0003 43.6707 40.463 44.1333 41.0336 44.1333H44.1336Z" fill="#3C58A0"/>
<path d="M18.3649 52.3992H16.1691C15.6341 52.3992 15.2003 51.9654 15.2003 51.4304V49.2346C15.2003 48.6996 15.6341 48.2659 16.1691 48.2659H18.3649C18.8999 48.2659 19.3336 48.6996 19.3336 49.2346V51.4304C19.3336 51.9654 18.8999 52.3992 18.3649 52.3992Z" fill="#3C58A0"/>
<path d="M26.6316 52.3992H24.4358C23.9008 52.3992 23.4671 51.9654 23.4671 51.4304V49.2346C23.4671 48.6996 23.9008 48.2659 24.4358 48.2659H26.6316C27.1666 48.2659 27.6004 48.6996 27.6004 49.2346V51.4304C27.6004 51.9654 27.1666 52.3992 26.6316 52.3992Z" fill="#3C58A0"/>
<path d="M34.8982 52.3992H32.7024C32.1674 52.3992 31.7336 51.9654 31.7336 51.4304V49.2346C31.7336 48.6996 32.1674 48.2659 32.7024 48.2659H34.8982C35.4332 48.2659 35.8669 48.6996 35.8669 49.2346V51.4304C35.8669 51.9654 35.4333 52.3992 34.8982 52.3992Z" fill="#3C58A0"/>
<path d="M59.6677 31.7338H57.5304C57.401 31.7338 57.2779 31.7592 57.1644 31.8039C57.5344 31.9499 57.7964 32.3098 57.7964 32.7317V34.869C57.7964 35.2909 57.5342 35.6508 57.1644 35.7968C57.2779 35.8416 57.401 35.8671 57.5304 35.8671H59.6677C60.2189 35.8671 60.6657 35.4202 60.6657 34.8691V32.7318C60.6656 32.1806 60.2188 31.7338 59.6677 31.7338Z" fill="#2A428C"/>
<path d="M51.401 31.7338H49.2637C49.1343 31.7338 49.0112 31.7592 48.8977 31.8039C49.2676 31.9499 49.5297 32.3098 49.5297 32.7317V34.869C49.5297 35.2909 49.2675 35.6508 48.8977 35.7968C49.0112 35.8416 49.1343 35.8671 49.2637 35.8671H51.401C51.9522 35.8671 52.3989 35.4202 52.3989 34.8691V32.7318C52.3989 32.1806 51.9522 31.7338 51.401 31.7338Z" fill="#2A428C"/>
<path d="M43.1357 31.7338H40.9984C40.8691 31.7338 40.7459 31.7592 40.6324 31.8039C41.0024 31.9499 41.2646 32.3098 41.2646 32.7317V34.869C41.2646 35.2909 41.0024 35.6508 40.6324 35.7968C40.7459 35.8416 40.8691 35.8671 40.9984 35.8671H43.1357C43.6869 35.8671 44.1338 35.4202 44.1338 34.8691V32.7318C44.1336 32.1806 43.6868 31.7338 43.1357 31.7338Z" fill="#2A428C"/>
<path d="M34.869 31.7338H32.7317C32.6024 31.7338 32.4792 31.7592 32.3658 31.8039C32.7357 31.9499 32.9979 32.3098 32.9979 32.7317V34.869C32.9979 35.2909 32.7357 35.6508 32.3658 35.7968C32.4792 35.8416 32.6024 35.8671 32.7317 35.8671H34.869C35.4202 35.8671 35.8671 35.4202 35.8671 34.8691V32.7318C35.8669 32.1806 35.4202 31.7338 34.869 31.7338Z" fill="#2A428C"/>
<path d="M26.6023 31.7338H24.465C24.3357 31.7338 24.2125 31.7592 24.0991 31.8039C24.469 31.9499 24.731 32.3098 24.731 32.7317V34.869C24.731 35.2909 24.4689 35.6508 24.0991 35.7968C24.2125 35.8416 24.3357 35.8671 24.465 35.8671H26.6023C27.1535 35.8671 27.6004 35.4202 27.6004 34.8691V32.7318C27.6004 32.1806 27.1535 31.7338 26.6023 31.7338Z" fill="#2A428C"/>
<path d="M18.3357 31.7338H16.1984C16.0691 31.7338 15.9459 31.7592 15.8325 31.8039C16.2024 31.9499 16.4646 32.3098 16.4646 32.7317V34.869C16.4646 35.2909 16.2024 35.6508 15.8325 35.7968C15.9459 35.8416 16.0691 35.8671 16.1984 35.8671H18.3357C18.8869 35.8671 19.3338 35.4202 19.3338 34.8691V32.7318C19.3336 32.1806 18.8868 31.7338 18.3357 31.7338Z" fill="#2A428C"/>
<path d="M18.3357 40H16.1984C16.0691 40 15.9459 40.0254 15.8325 40.0701C16.2024 40.2162 16.4646 40.576 16.4646 40.9979V43.1354C16.4646 43.5573 16.2024 43.9171 15.8325 44.0632C15.9459 44.108 16.0691 44.1334 16.1984 44.1334H18.3357C18.8869 44.1334 19.3338 43.6866 19.3338 43.1355V40.9981C19.3336 40.4468 18.8868 40 18.3357 40Z" fill="#2A428C"/>
<path d="M18.3357 48.2662H16.1984C16.0691 48.2662 15.9459 48.2917 15.8325 48.3363C16.2024 48.4824 16.4646 48.8423 16.4646 49.2642V51.4016C16.4646 51.8235 16.2024 52.1834 15.8325 52.3294C15.9459 52.3742 16.0691 52.3997 16.1984 52.3997H18.3357C18.8869 52.3997 19.3338 51.9528 19.3338 51.4017V49.2643C19.3336 48.713 18.8868 48.2662 18.3357 48.2662Z" fill="#2A428C"/>
<path d="M26.6023 40H24.465C24.3357 40 24.2125 40.0254 24.0991 40.0701C24.469 40.2162 24.731 40.576 24.731 40.9979V43.1354C24.731 43.5573 24.4689 43.9171 24.0991 44.0632C24.2125 44.108 24.3357 44.1334 24.465 44.1334H26.6023C27.1535 44.1334 27.6004 43.6866 27.6004 43.1355V40.9981C27.6004 40.4468 27.1535 40 26.6023 40Z" fill="#2A428C"/>
<path d="M26.6023 48.2662H24.465C24.3357 48.2662 24.2125 48.2917 24.0991 48.3363C24.469 48.4824 24.731 48.8423 24.731 49.2642V51.4016C24.731 51.8235 24.4689 52.1834 24.0991 52.3294C24.2125 52.3742 24.3357 52.3997 24.465 52.3997H26.6023C27.1535 52.3997 27.6004 51.9528 27.6004 51.4017V49.2643C27.6004 48.713 27.1535 48.2662 26.6023 48.2662Z" fill="#2A428C"/>
<path d="M34.869 40H32.7317C32.6024 40 32.4792 40.0254 32.3658 40.0701C32.7357 40.2162 32.9979 40.576 32.9979 40.9979V43.1354C32.9979 43.5573 32.7357 43.9171 32.3658 44.0632C32.4792 44.108 32.6024 44.1334 32.7317 44.1334H34.869C35.4202 44.1334 35.8671 43.6866 35.8671 43.1355V40.9981C35.8669 40.4468 35.4202 40 34.869 40Z" fill="#2A428C"/>
<path d="M44.1337 44.1333V40.9979C44.1337 40.4467 43.6868 40 43.1356 40H40.9983C40.869 40 40.7458 40.0254 40.6324 40.0701C41.0023 40.2162 41.2645 40.576 41.2645 40.9979V43.1354C41.2645 43.5573 41.0023 43.9171 40.6324 44.0632C40.7458 44.108 40.869 44.1334 40.9983 44.1334H44.1337V44.1333Z" fill="#2A428C"/>
<path d="M34.869 48.2662H32.7317C32.6024 48.2662 32.4792 48.2917 32.3658 48.3363C32.7357 48.4824 32.9979 48.8423 32.9979 49.2642V51.4016C32.9979 51.8235 32.7357 52.1834 32.3658 52.3294C32.4792 52.3742 32.6024 52.3997 32.7317 52.3997H34.869C35.4202 52.3997 35.8671 51.9528 35.8671 51.4017V49.2643C35.8669 48.713 35.4202 48.2662 34.869 48.2662Z" fill="#2A428C"/>
<path d="M61.9318 26.4025V44.9634V56.532H64.803V44.9634V27.5988L61.9318 26.4025Z" fill="#D3DCFB"/>
<path d="M64.803 27.6V17.2666C64.803 14.9839 62.9525 13.1334 60.6698 13.1334H15.1989C12.9162 13.1334 11.0657 14.9839 11.0657 17.2666V27.6H64.803Z" fill="#FF4155"/>
<path d="M24.0893 18.2037H21.399C20.8822 18.2037 20.4634 17.7848 20.4634 17.2681C20.4634 16.7514 20.8823 16.3325 21.399 16.3325H24.0893C24.6062 16.3325 25.0249 16.7514 25.0249 17.2681C25.0249 17.7848 24.6061 18.2037 24.0893 18.2037Z" fill="#E80054"/>
<path d="M30.6989 18.2037H28.0085C27.4917 18.2037 27.073 17.7848 27.073 17.2681C27.073 16.7514 27.4918 16.3325 28.0085 16.3325H30.6989C31.2157 16.3325 31.6344 16.7514 31.6344 17.2681C31.6344 17.7848 31.2157 18.2037 30.6989 18.2037Z" fill="#E80054"/>
<path d="M47.8574 18.2037H45.1669C44.6501 18.2037 44.2314 17.7848 44.2314 17.2681C44.2314 16.7514 44.6502 16.3325 45.1669 16.3325H47.8574C48.3742 16.3325 48.793 16.7514 48.793 17.2681C48.793 17.7848 48.3742 18.2037 47.8574 18.2037Z" fill="#E80054"/>
<path d="M54.4671 18.2037H51.7766C51.2598 18.2037 50.841 17.7848 50.841 17.2681C50.841 16.7514 51.2599 16.3325 51.7766 16.3325H54.4671C54.9839 16.3325 55.4026 16.7514 55.4026 17.2681C55.4026 17.7848 54.9838 18.2037 54.4671 18.2037Z" fill="#E80054"/>
<path d="M28.6323 16.75C28.6323 18.1767 27.4757 19.3333 26.049 19.3333C24.6223 19.3333 23.4657 18.1767 23.4657 16.75V11.5833C23.4656 10.1566 24.6222 9 26.0489 9C27.4756 9 28.6322 10.1566 28.6322 11.5833V16.75H28.6323Z" fill="#EBF5FC"/>
<path d="M52.4004 16.75C52.4004 18.1767 51.2438 19.3333 49.8171 19.3333C48.3903 19.3333 47.2336 18.1767 47.2336 16.75V11.5833C47.2336 10.1566 48.3902 9 49.8169 9C51.2437 9 52.4002 10.1566 52.4002 11.5833V16.75H52.4004Z" fill="#EBF5FC"/>
<path d="M49.8169 9C49.2865 9 48.7939 9.16033 48.3837 9.43448C49.0769 9.89779 49.5338 10.687 49.5338 11.5834V16.75C49.5338 17.6463 49.0769 18.4356 48.3837 18.8989C48.7938 19.173 49.2865 19.3334 49.8169 19.3334C51.2437 19.3334 52.4002 18.1768 52.4002 16.7501V11.5833C52.4003 10.1566 51.2438 9 49.8169 9Z" fill="#D3DCFB"/>
<path d="M26.0489 9C25.5185 9 25.0259 9.16033 24.6156 9.43448C25.3089 9.89779 25.7658 10.687 25.7658 11.5834V16.75C25.7658 17.6463 25.3089 18.4356 24.6156 18.8989C25.0258 19.173 25.5185 19.3334 26.0489 19.3334C27.4756 19.3334 28.6322 18.1768 28.6322 16.7501V11.5833C28.6323 10.1566 27.4757 9 26.0489 9Z" fill="#D3DCFB"/>
<path d="M60.6698 13.1333H57.7996C60.0823 13.1333 61.9327 14.9837 61.9327 17.2665V27.6H64.8029V17.2666C64.803 14.9839 62.9525 13.1333 60.6698 13.1333Z" fill="#E80054"/>
<path d="M11.0656 22.531H64.803V24.4023H11.0656V22.531Z" fill="#E80054"/>
<path d="M53.4344 71C61.9948 71 68.9344 64.0604 68.9344 55.5C68.9344 46.9396 61.9948 40 53.4344 40C44.874 40 37.9344 46.9396 37.9344 55.5C37.9344 64.0604 44.874 71 53.4344 71Z" fill="#4FABF7"/>
<path d="M53.4344 66.8667C59.7121 66.8667 64.8011 61.7777 64.8011 55.5C64.8011 49.2223 59.7121 44.1333 53.4344 44.1333C47.1567 44.1333 42.0677 49.2223 42.0677 55.5C42.0677 61.7777 47.1567 66.8667 53.4344 66.8667Z" fill="#EBF5FC"/>
<path d="M53.4343 54.3704C52.9175 54.3704 52.4988 53.9515 52.4988 53.4348V48.2681C52.4988 47.7514 52.9176 47.3325 53.4343 47.3325C53.9512 47.3325 54.3699 47.7514 54.3699 48.2681V53.4348C54.3699 53.9515 53.9511 54.3704 53.4343 54.3704Z" fill="#3C58A0"/>
<path d="M58.6011 56.4343H55.501C54.9841 56.4343 54.5654 56.0154 54.5654 55.4987C54.5654 54.982 54.9843 54.5631 55.501 54.5631H58.6011C59.1179 54.5631 59.5367 54.982 59.5367 55.4987C59.5367 56.0154 59.1178 56.4343 58.6011 56.4343Z" fill="#3C58A0"/>
<path d="M53.4344 40C52.9506 40 52.4723 40.0234 51.9998 40.0667C59.8875 40.7907 66.0651 47.4234 66.0651 55.5C66.0651 63.5766 59.8873 70.2093 51.9997 70.9333C52.4722 70.9766 52.9505 71 53.4343 71C61.9946 71 68.9343 64.0604 68.9343 55.5C68.9343 46.9396 61.9947 40 53.4344 40Z" fill="#1886EA"/>
<path d="M53.4344 44.1333C52.9488 44.1333 52.4703 44.1639 52.0007 44.223C57.6016 44.9279 61.9338 49.708 61.9338 55.5C61.9338 61.292 57.6016 66.0721 52.0007 66.777C52.4703 66.8361 52.9488 66.8667 53.4344 66.8667C59.712 66.8667 64.8011 61.7776 64.8011 55.5C64.8011 49.2224 59.712 44.1333 53.4344 44.1333Z" fill="#D3DCFB"/>
<path d="M53.4344 57.5652C54.5758 57.5652 55.5011 56.6399 55.5011 55.4985C55.5011 54.3571 54.5758 53.4318 53.4344 53.4318C52.293 53.4318 51.3677 54.3571 51.3677 55.4985C51.3677 56.6399 52.293 57.5652 53.4344 57.5652Z" fill="#FFDD40"/>
<g clip-path="url(#clip0_10088_845)">
<path d="M68 24C74.6274 24 80 18.6274 80 12C80 5.37258 74.6274 0 68 0C61.3726 0 56 5.37258 56 12C56 18.6274 61.3726 24 68 24Z" fill="#F54B4B"/>
<path d="M72.3406 18.3281C72.0794 18.3289 71.8205 18.2779 71.5792 18.1779C71.3378 18.078 71.1186 17.9312 70.9344 17.7459L68 14.8125L65.0656 17.7473C64.6927 18.1203 64.1868 18.3298 63.6594 18.3298C63.1319 18.3298 62.6261 18.1203 62.2531 17.7473C61.8802 17.3744 61.6706 16.8685 61.6706 16.3411C61.6706 15.8136 61.8802 15.3078 62.2531 14.9348L65.1875 12L62.2527 9.06562C61.8797 8.69266 61.6702 8.18682 61.6702 7.65937C61.6702 7.13193 61.8797 6.62608 62.2527 6.25312C62.6256 5.88016 63.1315 5.67063 63.6589 5.67063C64.1863 5.67063 64.6922 5.88016 65.0652 6.25312L68 9.1875L70.9344 6.25265C71.119 6.06798 71.3383 5.92149 71.5796 5.82155C71.8208 5.72161 72.0795 5.67017 72.3406 5.67017C72.6018 5.67017 72.8604 5.72161 73.1017 5.82155C73.343 5.92149 73.5622 6.06798 73.7469 6.25265C73.9315 6.43733 74.078 6.65656 74.178 6.89785C74.2779 7.13913 74.3294 7.39774 74.3294 7.6589C74.3294 7.92007 74.2779 8.17868 74.178 8.41996C74.078 8.66125 73.9315 8.88048 73.7469 9.06515L70.8125 12L73.7473 14.9344C74.0254 15.2124 74.2148 15.5667 74.2915 15.9524C74.3682 16.3381 74.3288 16.7379 74.1783 17.1012C74.0277 17.4644 73.7728 17.7749 73.4458 17.9933C73.1188 18.2117 72.7343 18.3282 72.3411 18.3281H72.3406Z" fill="white"/>
</g>
<defs>
<clipPath id="clip0_10088_845">
<rect width="24" height="24" fill="white" transform="translate(56)"/>
</clipPath>
</defs>
</svg>
