<svg width="15" height="15" viewBox="0 0 15 15" fill="none" xmlns="http://www.w3.org/2000/svg">
<g clip-path="url(#clip0_8511_20278)">
<path d="M12.1715 5.86487C12.0611 5.78054 11.9749 5.66861 11.9215 5.54036C11.8681 5.4121 11.8494 5.27204 11.8674 5.13428C12.0138 3.98869 11.922 3.32019 11.5683 2.96672C11.2139 2.61295 10.5457 2.5201 9.40071 2.66821C9.26286 2.68561 9.12285 2.6666 8.99463 2.61308C8.8664 2.55956 8.75442 2.47339 8.66984 2.36316C8.01188 1.5212 7.50659 1.14551 7.0315 1.14551C6.55696 1.14551 6.05168 1.52063 5.39372 2.36231C5.30883 2.47218 5.1968 2.55807 5.06865 2.6115C4.9405 2.66494 4.80064 2.68409 4.66284 2.66707C3.19596 2.47709 2.7334 2.7266 2.49528 2.96501C2.14209 3.31792 2.05037 3.98642 2.19678 5.13285C2.21465 5.27066 2.19595 5.41074 2.14256 5.53903C2.08916 5.66732 2.00295 5.7793 1.89258 5.86373C1.05119 6.52056 0.675781 7.02555 0.675781 7.50122C0.675781 7.97717 1.05119 8.48246 1.89372 9.13985C2.00412 9.22418 2.09036 9.33611 2.14376 9.46437C2.19716 9.59262 2.21584 9.73268 2.19791 9.87044C2.0515 11.016 2.14323 11.6845 2.49699 12.038C2.85075 12.3912 3.51841 12.4841 4.66455 12.3365C4.80239 12.3194 4.94231 12.3385 5.0705 12.392C5.19868 12.4455 5.31068 12.5315 5.39543 12.6416C6.05339 13.4836 6.55867 13.8592 7.03377 13.8592C7.5083 13.8592 8.01359 13.4841 8.67155 12.6424C8.75623 12.5323 8.86823 12.4463 8.99644 12.3928C9.12465 12.3394 9.2646 12.3203 9.40242 12.3377C10.8687 12.5268 11.3313 12.2782 11.57 12.0397C11.9232 11.6868 12.0149 11.0183 11.8685 9.87189C11.8506 9.73409 11.8693 9.59401 11.9227 9.46572C11.9761 9.33743 12.0623 9.22545 12.1727 9.14102C13.0141 8.48419 13.3895 7.97919 13.3895 7.50353C13.3895 7.02753 13.0141 6.52225 12.1715 5.86487Z" fill="#00AA6D"/>
<path d="M5.87897 9.32843L4.82118 8.27048C4.68305 8.13233 4.60546 7.94498 4.60547 7.74962C4.60548 7.55427 4.68308 7.36692 4.82122 7.22879C4.95934 7.09066 5.1468 7.01294 5.34214 7.01292C5.53748 7.0129 5.72482 7.09048 5.86297 7.22858L6.37196 7.73738L8.20107 5.70481C8.26578 5.6329 8.34402 5.57444 8.43133 5.53277C8.51864 5.4911 8.6133 5.46704 8.70991 5.46196C8.80652 5.45687 8.90318 5.47087 8.99438 5.50314C9.08557 5.53542 9.16952 5.58534 9.24142 5.65007C9.38661 5.78075 9.47394 5.96376 9.48421 6.15883C9.49448 6.3539 9.42685 6.54506 9.29618 6.69027L6.94754 9.30034C6.88064 9.37469 6.7993 9.43463 6.70849 9.47652C6.61767 9.51841 6.51927 9.54137 6.41929 9.544C6.31931 9.54663 6.21984 9.52887 6.12695 9.49181C6.03406 9.45475 5.94968 9.39916 5.87897 9.32843Z" fill="white"/>
</g>
<defs>
<clipPath id="clip0_8511_20278">
<rect width="14" height="14" fill="white" transform="translate(0.03125 0.502441)"/>
</clipPath>
</defs>
</svg>
