<svg width="9" height="6" viewBox="0 0 9 6" fill="none" xmlns="http://www.w3.org/2000/svg">
<mask id="path-1-inside-1_7162_28076" fill="white">
<path d="M0.199585 0.214844H8.19958V5.01484H0.199585V0.214844Z"/>
</mask>
<g clip-path="url(#paint0_diamond_7162_28076_clip_path)" data-figma-skip-parse="true" mask="url(#path-1-inside-1_7162_28076)"><g transform="matrix(0.004 0 0 0.0048 4.19958 0.214844)"><rect x="0" y="0" width="2000" height="1833.33" fill="url(#paint0_diamond_7162_28076)" opacity="1" shape-rendering="crispEdges"/><rect x="0" y="0" width="2000" height="1833.33" transform="scale(1 -1)" fill="url(#paint0_diamond_7162_28076)" opacity="1" shape-rendering="crispEdges"/><rect x="0" y="0" width="2000" height="1833.33" transform="scale(-1 1)" fill="url(#paint0_diamond_7162_28076)" opacity="1" shape-rendering="crispEdges"/><rect x="0" y="0" width="2000" height="1833.33" transform="scale(-1)" fill="url(#paint0_diamond_7162_28076)" opacity="1" shape-rendering="crispEdges"/></g></g><path d="M0.199585 0.214844V-4.58516H-3.80042V0.214844H0.199585ZM8.19958 0.214844H12.1996V-4.58516H8.19958V0.214844ZM0.199585 0.214844V5.01484H8.19958V0.214844V-4.58516H0.199585V0.214844ZM8.19958 0.214844H4.19958V5.01484H8.19958H12.1996V0.214844H8.19958ZM0.199585 5.01484H4.19958V0.214844H0.199585H-3.80042V5.01484H0.199585Z" data-figma-gradient-fill="{&#34;type&#34;:&#34;GRADIENT_DIAMOND&#34;,&#34;stops&#34;:[{&#34;color&#34;:{&#34;r&#34;:0.53333336114883423,&#34;g&#34;:0.53333336114883423,&#34;b&#34;:0.53333336114883423,&#34;a&#34;:1.0},&#34;position&#34;:0.99999988079071045},{&#34;color&#34;:{&#34;r&#34;:0.0,&#34;g&#34;:0.0,&#34;b&#34;:0.0,&#34;a&#34;:0.0},&#34;position&#34;:1.0}],&#34;stopsVar&#34;:[{&#34;color&#34;:{&#34;r&#34;:0.53333336114883423,&#34;g&#34;:0.53333336114883423,&#34;b&#34;:0.53333336114883423,&#34;a&#34;:1.0},&#34;position&#34;:0.99999988079071045},{&#34;color&#34;:{&#34;r&#34;:0.0,&#34;g&#34;:0.0,&#34;b&#34;:0.0,&#34;a&#34;:0.0},&#34;position&#34;:1.0}],&#34;transform&#34;:{&#34;m00&#34;:8.0,&#34;m01&#34;:0.0,&#34;m02&#34;:0.19958496093750,&#34;m10&#34;:0.0,&#34;m11&#34;:9.6000003814697266,&#34;m12&#34;:-4.5851564407348633},&#34;opacity&#34;:1.0,&#34;blendMode&#34;:&#34;NORMAL&#34;,&#34;visible&#34;:true}" mask="url(#path-1-inside-1_7162_28076)"/>
<defs>
<clipPath id="paint0_diamond_7162_28076_clip_path"><path d="M0.199585 0.214844V-4.58516H-3.80042V0.214844H0.199585ZM8.19958 0.214844H12.1996V-4.58516H8.19958V0.214844ZM0.199585 0.214844V5.01484H8.19958V0.214844V-4.58516H0.199585V0.214844ZM8.19958 0.214844H4.19958V5.01484H8.19958H12.1996V0.214844H8.19958ZM0.199585 5.01484H4.19958V0.214844H0.199585H-3.80042V5.01484H0.199585Z" mask="url(#path-1-inside-1_7162_28076)"/></clipPath><linearGradient id="paint0_diamond_7162_28076" x1="0" y1="0" x2="500" y2="500" gradientUnits="userSpaceOnUse">
<stop offset="1" stop-color="#888888"/>
<stop offset="1" stop-opacity="0"/>
</linearGradient>
</defs>
</svg>
