<svg width="34" height="34" viewBox="0 0 34 34" fill="none" xmlns="http://www.w3.org/2000/svg">
<path d="M30.8135 12.5812V24.0817C30.8973 24.7996 30.8175 25.5272 30.5801 26.2098C30.3427 26.8925 29.954 27.5126 29.4429 28.0236C28.9318 28.5347 28.3117 28.9235 27.6291 29.1608C26.9464 29.3982 26.2189 29.478 25.501 29.3942H8.50102C7.78313 29.478 7.05561 29.3982 6.37295 29.1608C5.69029 28.9235 5.0702 28.5347 4.55914 28.0236C4.04807 27.5126 3.6593 26.8925 3.42193 26.2098C3.18456 25.5272 3.10477 24.7996 3.18852 24.0817V9.91508C3.10477 9.1972 3.18456 8.46967 3.42193 7.78701C3.6593 7.10435 4.04807 6.48426 4.55914 5.9732C5.0702 5.46214 5.69029 5.07336 6.37295 4.83599C7.05561 4.59863 7.78313 4.51883 8.50102 4.60258H20.9677C21.0304 4.60422 21.0919 4.61971 21.1479 4.64794C21.2039 4.67618 21.2529 4.71645 21.2915 4.76587C21.3301 4.8153 21.3573 4.87265 21.3711 4.93382C21.3849 4.99498 21.385 5.05845 21.3714 5.11966C21.0372 6.77494 21.3733 8.49521 22.3061 9.90289C23.2389 11.3106 24.6921 12.2906 26.3468 12.628C27.6564 12.8898 29.0151 12.7337 30.2313 12.1817C30.2961 12.1559 30.3663 12.1465 30.4357 12.1542C30.505 12.1619 30.5714 12.1866 30.629 12.2261C30.6865 12.2656 30.7335 12.3187 30.7657 12.3806C30.7978 12.4425 30.8143 12.5115 30.8135 12.5812Z" fill="#A6A6A6" fill-opacity="0.35"/>
<path d="M28.5628 20.0624L22.2558 13.7554C21.9887 13.4893 21.627 13.3398 21.25 13.3398C20.873 13.3398 20.5113 13.4893 20.2442 13.7554L13.2458 20.7537C13.1134 20.8835 12.9354 20.9562 12.75 20.9562C12.5646 20.9562 12.3866 20.8835 12.2542 20.7537L10.9225 19.422C10.6554 19.1559 10.2937 19.0065 9.91667 19.0065C9.53962 19.0065 9.17795 19.1559 8.91083 19.422L5.43717 22.8957C5.35744 22.9753 5.3126 23.0833 5.3125 23.196V24.0829C5.3125 26.3212 6.26167 27.2704 8.5 27.2704H25.5C27.7383 27.2704 28.6875 26.3212 28.6875 24.0829V20.3627C28.6874 20.25 28.6426 20.142 28.5628 20.0624Z" fill="#999999" fill-opacity="0.7"/>
<path d="M11.3358 14.5182C11.1033 14.5191 10.8728 14.4741 10.6577 14.3859C10.4425 14.2977 10.2468 14.1679 10.0818 14.0041C9.74849 13.6732 9.5603 13.2234 9.55861 12.7538C9.55691 12.2841 9.74186 11.833 10.0728 11.4997C10.4037 11.1664 10.8534 10.9783 11.3231 10.9766H11.3358C11.8055 10.9766 12.2559 11.1631 12.588 11.4952C12.9201 11.8273 13.1066 12.2777 13.1066 12.7474C13.1066 13.2171 12.9201 13.6675 12.588 13.9996C12.2559 14.3317 11.8055 14.5182 11.3358 14.5182Z" fill="#999999" fill-opacity="0.7"/>
<path d="M30.5017 5.62265L28.3767 3.49765C28.1773 3.29902 27.9073 3.1875 27.6258 3.1875C27.3444 3.1875 27.0744 3.29902 26.875 3.49765L24.75 5.62265C24.5623 5.82406 24.4602 6.09046 24.465 6.36572C24.4699 6.64098 24.5814 6.90361 24.776 7.09828C24.9707 7.29295 25.2333 7.40446 25.5086 7.40931C25.7839 7.41417 26.0503 7.31199 26.2517 7.12431L26.5633 6.81406V9.91515C26.5633 10.1969 26.6753 10.4672 26.8745 10.6664C27.0738 10.8657 27.344 10.9776 27.6258 10.9776C27.9076 10.9776 28.1779 10.8657 28.3771 10.6664C28.5764 10.4672 28.6883 10.1969 28.6883 9.91515V6.81406L29 7.12431C29.2014 7.31199 29.4678 7.41417 29.7431 7.40931C30.0183 7.40446 30.281 7.29295 30.4756 7.09828C30.6703 6.90361 30.7818 6.64098 30.7867 6.36572C30.7915 6.09046 30.6894 5.82406 30.5017 5.62265Z" fill="#999999" fill-opacity="0.7"/>
</svg>
