<svg width="22" height="23" viewBox="0 0 22 23" fill="none" xmlns="http://www.w3.org/2000/svg">
<path d="M0.426224 0.352805C0.156243 0.624461 0 1.04741 0 1.59514V21.1324C0 21.6801 0.156243 22.1031 0.426224 22.3747L0.492858 22.4344L11.8826 11.4908V11.2324L0.492858 0.288756L0.426224 0.352805Z" fill="url(#paint0_linear_10530_9013)"/>
<path d="M15.6749 15.1379L11.8826 11.4882V11.2297L15.6795 7.58004L15.7645 7.62753L20.2612 10.0868C21.5444 10.7847 21.5444 11.9332 20.2612 12.6355L15.7645 15.0904L15.6749 15.1379Z" fill="url(#paint1_linear_10530_9013)"/>
<path d="M15.7646 15.0936L11.8826 11.3622L0.42627 22.3754C0.852494 22.8061 1.54755 22.858 2.33796 22.4273L15.7646 15.0936Z" fill="url(#paint2_linear_10530_9013)"/>
<path d="M15.7646 7.62812L2.33796 0.29447C1.54755 -0.131791 0.852494 -0.0798893 0.42627 0.350786L11.8826 11.3595L15.7646 7.62812Z" fill="url(#paint3_linear_10530_9013)"/>
<defs>
<linearGradient id="paint0_linear_10530_9013" x1="10.8713" y1="21.3359" x2="-3.94332" y2="5.92351" gradientUnits="userSpaceOnUse">
<stop stop-color="#00A0FF"/>
<stop offset="0.0066" stop-color="#00A1FF"/>
<stop offset="0.2601" stop-color="#00BEFF"/>
<stop offset="0.5122" stop-color="#00D2FF"/>
<stop offset="0.7604" stop-color="#00DFFF"/>
<stop offset="1" stop-color="#00E3FF"/>
</linearGradient>
<linearGradient id="paint1_linear_10530_9013" x1="21.9322" y1="11.3577" x2="-0.306767" y2="11.3577" gradientUnits="userSpaceOnUse">
<stop stop-color="#FFE000"/>
<stop offset="0.4087" stop-color="#FFBD00"/>
<stop offset="0.7754" stop-color="#FFA500"/>
<stop offset="1" stop-color="#FF9C00"/>
</linearGradient>
<linearGradient id="paint2_linear_10530_9013" x1="13.6537" y1="9.33374" x2="-6.43615" y2="-11.5667" gradientUnits="userSpaceOnUse">
<stop stop-color="#FF3A44"/>
<stop offset="1" stop-color="#C31162"/>
</linearGradient>
<linearGradient id="paint3_linear_10530_9013" x1="-2.45754" y1="28.8727" x2="6.51349" y2="19.5398" gradientUnits="userSpaceOnUse">
<stop stop-color="#32A071"/>
<stop offset="0.0685" stop-color="#2DA771"/>
<stop offset="0.4762" stop-color="#15CF74"/>
<stop offset="0.8009" stop-color="#06E775"/>
<stop offset="1" stop-color="#00F076"/>
</linearGradient>
</defs>
</svg>
