<svg width="44" height="40" viewBox="0 0 44 40" fill="none" xmlns="http://www.w3.org/2000/svg">
<path d="M39.6001 40C40.767 40 41.8861 39.5317 42.7113 38.6983C43.5364 37.8648 44 36.7343 44 35.5556V24.7022C44 23.5235 43.5364 22.393 42.7113 21.5595C41.8861 20.726 40.767 20.2578 39.6001 20.2578H33.493C33.493 18.6978 33.5854 17.1333 33.7658 15.5733C34.0386 13.92 34.4962 12.4489 35.1298 11.1644C35.7677 9.87556 36.5861 8.86667 37.5893 8.12889C38.5881 7.30222 39.8597 6.88889 41.4084 6.88889V0C38.8609 0 36.6345 0.551111 34.7206 1.65333C32.8233 2.74438 31.192 4.2509 29.9466 6.06222C28.6967 8.05918 27.7755 10.2475 27.2187 12.5422C26.6576 15.0745 26.3831 17.6629 26.4003 20.2578V35.5556C26.4003 36.7343 26.8639 37.8648 27.689 38.6983C28.5142 39.5317 29.6333 40 30.8002 40H39.6001ZM13.2005 40C14.3675 40 15.4866 39.5317 16.3117 38.6983C17.1369 37.8648 17.6005 36.7343 17.6005 35.5556V24.7022C17.6005 23.5235 17.1369 22.393 16.3117 21.5595C15.4866 20.726 14.3675 20.2578 13.2005 20.2578H7.09344C7.09344 18.6978 7.18584 17.1333 7.36623 15.5733C7.63903 13.92 8.09662 12.4489 8.73021 11.1644C9.3682 9.87556 10.1866 8.86667 11.1898 8.12889C12.1886 7.30222 13.4601 6.88889 15.0089 6.88889V0C12.4613 0 10.235 0.551111 8.32102 1.65333C6.42371 2.74438 4.79247 4.2509 3.5471 6.06222C2.29719 8.05918 1.37593 10.2475 0.819149 12.5422C0.258097 15.0745 -0.0164582 17.6629 0.000762411 20.2578V35.5556C0.000762411 36.7343 0.464324 37.8648 1.28947 38.6983C2.11462 39.5317 3.23375 40 4.40069 40H13.2005Z" fill="#EDEDED"/>
</svg>
